<svg xmlns="http://www.w3.org/2000/svg" viewBox="0 0 124 98"><defs><style>.cls-1{fill:#eee;}</style></defs><title>123_3</title><g id="Layer_2" data-name="Layer 2"><g id="Layer_1-2" data-name="Layer 1"><path class="cls-1" d="M121.42,15.47H38.75a2.58,2.58,0,1,1,0-5.15h82.67a2.58,2.58,0,1,1,0,5.15Z"/><path class="cls-1" d="M12.92,25.79a12.9,12.9,0,1,1,12.91-12.9A12.92,12.92,0,0,1,12.92,25.79Zm0-20.63a7.74,7.74,0,1,0,7.75,7.73A7.75,7.75,0,0,0,12.92,5.16Z"/><path class="cls-1" d="M121.42,51.58H38.75a2.58,2.58,0,0,1,0-5.16h82.67a2.58,2.58,0,1,1,0,5.16Z"/><path class="cls-1" d="M12.92,61.89A12.89,12.89,0,1,1,25.83,49,12.91,12.91,0,0,1,12.92,61.89Zm0-20.63A7.74,7.74,0,1,0,20.67,49,7.75,7.75,0,0,0,12.92,41.26Z"/><path class="cls-1" d="M121.42,87.68H38.75a2.58,2.58,0,1,1,0-5.15h82.67a2.58,2.58,0,1,1,0,5.15Z"/><path class="cls-1" d="M12.92,98A12.9,12.9,0,1,1,25.83,85.11,12.92,12.92,0,0,1,12.92,98Zm0-20.63a7.74,7.74,0,1,0,7.75,7.74A7.75,7.75,0,0,0,12.92,77.37Z"/></g></g></svg>