<svg xmlns="http://www.w3.org/2000/svg" viewBox="0 0 128 116"><defs><style>.cls-1{fill:#eee;}</style></defs><title>123_1</title><g id="Layer_2" data-name="Layer 2"><g id="Layer_1-2" data-name="Layer 1"><path class="cls-1" d="M128,49.3H105.83l.17-.18L74.51,18.25a11.74,11.74,0,0,0,1.79-6.18,12.3,12.3,0,0,0-24.6,0,11.75,11.75,0,0,0,1.8,6.18L22,49.12l.18.18H0V66.61H9.51l3,35.47A15.51,15.51,0,0,0,27.85,116h72.28a15.49,15.49,0,0,0,15.39-13.9l3-35.49H128ZM64,5.2a6.93,6.93,0,0,1,7,6.87,7,7,0,0,1-14,0A6.93,6.93,0,0,1,64,5.2ZM57.1,22a12.43,12.43,0,0,0,13.8,0L98.69,49.3H29.31Zm53.15,79.62a10.24,10.24,0,0,1-10.15,9.15H27.88a10.26,10.26,0,0,1-10.14-9.18l-2.91-35h98.34ZM122.7,61.41H5.3V54.5H122.7Z"/></g></g></svg>