<svg xmlns="http://www.w3.org/2000/svg" viewBox="0 0 11 13"><defs><style>.cls-1{fill:#2e2222;}</style></defs><title>arrow_down</title><g id="Layer_2" data-name="Layer 2"><g id="Layer_1-2" data-name="Layer 1"><path class="cls-1" d="M10.08,6.91a.8.8,0,0,1,.37-.26.48.48,0,0,1,.54.56.85.85,0,0,1-.25.38L5.5,13,.26,7.59A.85.85,0,0,1,0,7.21a.45.45,0,0,1,.13-.42.45.45,0,0,1,.41-.14.8.8,0,0,1,.37.26l4.14,4.28V.63A.76.76,0,0,1,5.14.2.4.4,0,0,1,5.51,0a.43.43,0,0,1,.37.2A.77.77,0,0,1,6,.63V11.18Z"/></g></g></svg>