<svg xmlns="http://www.w3.org/2000/svg" viewBox="0 0 37 37"><defs><style>.cls-1{fill:#f6921e;}</style></defs><title>cont_3</title><g id="Layer_2" data-name="Layer 2"><g id="Layer_1-2" data-name="Layer 1"><path class="cls-1" d="M3.12,26.28a1.06,1.06,0,0,1,1.47.39,16.27,16.27,0,0,0,5.94,6,16.14,16.14,0,0,0,16.2,0,16.39,16.39,0,0,0,5.94-22.27h0a16.35,16.35,0,0,0-5.94-6,15.53,15.53,0,0,0-7-2.13V18.78s0,.09,0,.09a.19.19,0,0,1,0,.09s-.05,0-.05.08,0,.05,0,.09,0,.05-.09.09l-.08.09c-.05,0-.05,0-.09,0l-.09.09h0L9.79,24.93a1,1,0,0,1-.52.13,1.08,1.08,0,0,1-.56-2l8.84-5.14V1.09A1.07,1.07,0,0,1,18.63,0a18.26,18.26,0,0,1,9.18,2.48,18.54,18.54,0,0,1,6.72,6.76h0a18.52,18.52,0,0,1,0,18.48,18.75,18.75,0,0,1-6.76,6.8,18.25,18.25,0,0,1-18.37,0,18.91,18.91,0,0,1-6.76-6.8A1.18,1.18,0,0,1,3.12,26.28Z"/><path class="cls-1" d="M10.66,4.58a1.24,1.24,0,0,1-.65.17A1.3,1.3,0,0,1,8.88,4.1a1.35,1.35,0,0,1,.48-1.79A1.2,1.2,0,0,1,10,2.14h0a1.28,1.28,0,0,1,1.12.65A1.36,1.36,0,0,1,10.66,4.58Z"/><path class="cls-1" d="M3.64,11.11A1.22,1.22,0,0,1,3,10.94a1.28,1.28,0,0,1-.61-.79,1.39,1.39,0,0,1,.13-1A1.3,1.3,0,0,1,3.64,8.5h0a1.22,1.22,0,0,1,.65.17,1.35,1.35,0,0,1,.48,1.79A1.3,1.3,0,0,1,3.64,11.11Z"/><ellipse class="cls-1" cx="1.3" cy="18.52" rx="1.3" ry="1.31"/></g></g></svg>