<svg xmlns="http://www.w3.org/2000/svg" viewBox="0 0 35 36"><defs><style>.cls-1{fill:#ce6fab;}</style></defs><title>cont_1</title><g id="Layer_2" data-name="Layer 2"><g id="Layer_1-2" data-name="Layer 1"><g id="map"><path class="cls-1" d="M34.27,36a.8.8,0,0,1-.33-.08L25.5,31.57l-7.7,3.52a.7.7,0,0,1-.6,0L9.5,31.57,1.06,35.92a.72.72,0,0,1-.76-.06A.76.76,0,0,1,0,35.14l2.91-21a.74.74,0,0,1,.73-.64H5.1a.75.75,0,0,1,0,1.5H4.28l-2.63,19,7.5-3.87a.71.71,0,0,1,.62,0l7.73,3.52,7.73-3.52a.71.71,0,0,1,.62,0l7.5,3.87L30.72,15H29.9a.75.75,0,0,1,0-1.5h1.45a.74.74,0,0,1,.73.64l2.91,21a.73.73,0,0,1-.72.86Z"/><g id="pin"><path class="cls-1" d="M17.5,29.78,17,29.25C16.57,28.82,6.8,18.67,6.81,11A10.87,10.87,0,0,1,17.5,0,10.87,10.87,0,0,1,28.19,11c0,7.63-9.76,17.82-10.17,18.25Zm0-28.28A9.38,9.38,0,0,0,8.27,11c0,6.1,7.21,14.42,9.23,16.63,2-2.21,9.23-10.57,9.23-16.63A9.38,9.38,0,0,0,17.5,1.5Z"/><path class="cls-1" d="M17.5,16.07a5.34,5.34,0,0,1-5.26-5.41,5.26,5.26,0,1,1,10.52,0A5.34,5.34,0,0,1,17.5,16.07Zm0-9.32a3.91,3.91,0,1,0,3.8,3.91A3.86,3.86,0,0,0,17.5,6.75Z"/></g></g></g></g></svg>