<svg xmlns="http://www.w3.org/2000/svg" viewBox="0 0 39 29"><defs><style>.cls-1{fill:#f05838;}</style></defs><title>cont_4</title><g id="Layer_2" data-name="Layer 2"><g id="Layer_1-2" data-name="Layer 1"><g id="email"><path class="cls-1" d="M34.76,29H4.24A4.25,4.25,0,0,1,0,24.74V.85a.85.85,0,0,1,1.7,0V24.74a2.55,2.55,0,0,0,2.54,2.55H34.76a2.55,2.55,0,0,0,2.54-2.55V.85a.85.85,0,0,1,1.7,0V24.74A4.25,4.25,0,0,1,34.76,29Z"/><path class="cls-1" d="M19.49,16.25A4.18,4.18,0,0,1,17,15.44L.31,1.51A.85.85,0,0,1,.85,0h37.3a.85.85,0,0,1,.54,1.51L22,15.4A4.31,4.31,0,0,1,19.49,16.25ZM3.2,1.71,18.05,14.09a2.52,2.52,0,0,0,2.95,0L35.8,1.71Z"/><path class="cls-1" d="M38.15,1.71H.85A.86.86,0,0,1,0,.85.85.85,0,0,1,.85,0h37.3A.85.85,0,0,1,39,.85.86.86,0,0,1,38.15,1.71Z"/></g></g></g></svg>