<svg xmlns="http://www.w3.org/2000/svg" viewBox="0 0 37 38"><defs><style>.cls-1{fill:#7dc142;}</style></defs><title>cont_2</title><g id="Layer_2" data-name="Layer 2"><g id="Layer_1-2" data-name="Layer 1"><path class="cls-1" d="M35.7,28.27,35,27.68A19.27,19.27,0,0,0,27,2.1,18,18,0,0,0,18.55,0,.58.58,0,0,0,18,.59a.58.58,0,0,0,.57.6A17.55,17.55,0,0,1,35.84,19,18.11,18.11,0,0,1,34,27l-4.67-3.61a2,2,0,0,0-2.64.2l-3.14,3.21a.82.82,0,0,1-.92.21,21.51,21.51,0,0,1-7.23-4.87,22.38,22.38,0,0,1-4.74-7.45.9.9,0,0,1,.21-.95L14,10.49a2.15,2.15,0,0,0,.19-2.73L9.42,1.23A2,2,0,0,0,6.94.59L1.18,3.38A2.07,2.07,0,0,0,0,5.56C.6,9.46,2.7,19.22,10.4,27.17a36.7,36.7,0,0,0,13.48,8.77A17.2,17.2,0,0,1,2.09,24.48,18.17,18.17,0,0,1,1.25,19a.59.59,0,0,0-.58-.6A.59.59,0,0,0,.1,19c0,10.49,8.26,19,18.45,19a18.08,18.08,0,0,0,7.06-1.44A37.22,37.22,0,0,0,31.5,38h.32a2,2,0,0,0,1.83-1.18l2.7-5.94A2.14,2.14,0,0,0,35.7,28.27Zm-.42,2.05-2.71,5.94a.85.85,0,0,1-.91.51,36.93,36.93,0,0,1-19.87-9.85l0,0-.58-.6-.44-.46,0,0A38.88,38.88,0,0,1,1.14,5.37a.9.9,0,0,1,.5-.94L7.4,1.65a.86.86,0,0,1,1.07.28l4.78,6.53a.94.94,0,0,1-.08,1.19L10,12.86a2.13,2.13,0,0,0-.45,2.23,23.4,23.4,0,0,0,5,7.85,22.5,22.5,0,0,0,7.63,5.14,2,2,0,0,0,2.15-.47l3.14-3.22a.85.85,0,0,1,1.15-.09L35,29.22A.92.92,0,0,1,35.28,30.32Z"/></g></g></svg>