<svg xmlns="http://www.w3.org/2000/svg" viewBox="0 0 105 62"><defs><style>.cls-1{fill:#fff;}</style></defs><title>cosio_big_vk</title><g id="Layer_2" data-name="Layer 2"><g id="Layer_1-2" data-name="Layer 1"><g id="Layer_1-2-2" data-name="Layer 1-2"><g id="VK"><path class="cls-1" d="M56,62c3.51,0,3.51-4.84,3.51-6.9a7.43,7.43,0,0,1,7-6.86c3.51,0,9.77,6.2,14,10.33C83.92,62,83.92,62,87.42,62H97.89s7,0,7-6.9c0-2.07-2.1-5.5-10.47-13.77-7-6.9-10.46-3.43,0-17.23,6.31-8.27,11.17-15.83,10.47-18.6C104.15,3.43,86,0,83.92,3.43A126.69,126.69,0,0,0,73.45,20.67C70,27.57,70,31,66.44,31s-3.5-6.9-3.5-10.33C62.94,9,64.34,1.36,59.48,0H49A20.69,20.69,0,0,0,38.5,3.43S34.34,6.9,35,6.9s7-1.4,7,3.43v6.91S42,31,38.5,31,28,17.24,21.07,6.9c-2.81-4.13-3.51-3.47-7-3.47H3.75C.24,3.43-.46,5.5.24,6.9c7,17.2,11.87,28.23,25.14,41.34C37.25,60.64,45.66,61.3,52.63,62Z"/></g></g></g></g></svg>