<svg xmlns="http://www.w3.org/2000/svg" viewBox="0 0 24 24"><defs><style>.cls-1{fill:#ce6fab;}</style></defs><title>head_1</title><g id="Layer_2" data-name="Layer 2"><g id="Layer_1-2" data-name="Layer 1"><g id="map"><path class="cls-1" d="M23.5,24a.54.54,0,0,1-.22-.05l-5.79-2.9L12.2,23.39a.47.47,0,0,1-.4,0L6.51,21.05.72,24a.52.52,0,0,1-.51,0,.5.5,0,0,1-.2-.48l2-14A.5.5,0,0,1,2.5,9h1a.51.51,0,0,1,0,1H2.93L1.13,22.62l5.15-2.57a.48.48,0,0,1,.42,0L12,22.39,17.3,20a.48.48,0,0,1,.42,0l5.15,2.57L21.07,10H20.5a.51.51,0,0,1,0-1h1a.5.5,0,0,1,.49.43l2,14a.5.5,0,0,1-.2.48A.5.5,0,0,1,23.5,24Z"/><g id="pin"><path class="cls-1" d="M12,19.85l-.35-.35c-.29-.29-7-7-7-12.16a7.33,7.33,0,1,1,14.66,0c0,5.08-6.69,11.87-7,12.16ZM12,1A6.34,6.34,0,0,0,5.67,7.34C5.66,11.4,10.62,17,12,18.42c1.38-1.48,6.33-7.05,6.33-11.08A6.34,6.34,0,0,0,12,1Z"/><path class="cls-1" d="M12,10.71a3.61,3.61,0,1,1,3.6-3.6A3.6,3.6,0,0,1,12,10.71ZM12,4.5a2.61,2.61,0,1,0,2.6,2.61A2.6,2.6,0,0,0,12,4.5Z"/></g></g></g></g></svg>