<svg xmlns="http://www.w3.org/2000/svg" viewBox="0 0 24 24"><defs><style>.cls-1{fill:#f6921e;}</style></defs><title>head_2</title><g id="Layer_2" data-name="Layer 2"><g id="Layer_1-2" data-name="Layer 1"><path class="cls-1" d="M2,17.05a.69.69,0,0,1,1,.25,10.58,10.58,0,0,0,3.85,3.87,10.43,10.43,0,0,0,10.51,0A10.55,10.55,0,0,0,22.59,12a10.43,10.43,0,0,0-1.4-5.28h0a10.58,10.58,0,0,0-3.85-3.87,10,10,0,0,0-4.55-1.39V12.18s0,.06,0,.06a.1.1,0,0,1,0,.06s0,0,0,0,0,0,0,.06,0,0-.05.06l-.06,0s0,0-.05,0l-.06.06h0L6.35,16.17a.61.61,0,0,1-.34.08A.69.69,0,0,1,5.65,15l5.73-3.33V.71a.7.7,0,0,1,.7-.71,11.91,11.91,0,0,1,6,1.61A12,12,0,0,1,22.4,6h0a12,12,0,0,1,0,12A12.21,12.21,0,0,1,18,22.39a11.82,11.82,0,0,1-11.91,0A12.21,12.21,0,0,1,1.71,18,.76.76,0,0,1,2,17.05Z"/><path class="cls-1" d="M6.91,3a.83.83,0,0,1-.42.11.84.84,0,0,1-.73-.42A.88.88,0,0,1,6.07,1.5a.74.74,0,0,1,.42-.11h0a.82.82,0,0,1,.73.42A.87.87,0,0,1,6.91,3Z"/><path class="cls-1" d="M2.36,7.21a.83.83,0,0,1-.42-.11.8.8,0,0,1-.39-.51.86.86,0,0,1,.08-.65.83.83,0,0,1,.73-.43h0a.75.75,0,0,1,.42.12.85.85,0,0,1,.31,1.15A.83.83,0,0,1,2.36,7.21Z"/><ellipse class="cls-1" cx="0.84" cy="12.01" rx="0.84" ry="0.85"/></g></g></svg>