<svg xmlns="http://www.w3.org/2000/svg" viewBox="0 0 9 13"><defs><style>.cls-1{fill:#080808;}</style></defs><title>heap_parking</title><g id="Layer_2" data-name="Layer 2"><g id="Layer_1-2" data-name="Layer 1"><path class="cls-1" d="M0,11.67V1.2A1.19,1.19,0,0,1,.28.28,1.16,1.16,0,0,1,1.19,0H4.88A3.84,3.84,0,0,1,9,3.92,3.83,3.83,0,0,1,4.88,7.83H2v3.84a1.65,1.65,0,0,1-.14.89A.93.93,0,0,1,1,13a.91.91,0,0,1-.83-.44A1.55,1.55,0,0,1,0,11.67ZM2,6.08H4.77A2.07,2.07,0,0,0,7.05,3.92,2.07,2.07,0,0,0,4.77,1.74H2Z"/></g></g></svg>