<svg xmlns="http://www.w3.org/2000/svg" viewBox="0 0 12 11"><defs><style>.cls-1{fill:#fff;}</style></defs><title>home</title><g id="Layer_2" data-name="Layer 2"><g id="Layer_1-2" data-name="Layer 1"><path class="cls-1" d="M11.85,5.27,6,0,.15,5.27A.43.43,0,0,0,.2,6a.48.48,0,0,0,.59,0L1,5.73V10.4a.62.62,0,0,0,.63.6H4.27a.5.5,0,0,0,.5-.48V8a.49.49,0,0,1,.49-.48H6.71a.49.49,0,0,1,.5.48v2.52a.5.5,0,0,0,.5.48h2.66a.61.61,0,0,0,.62-.6V5.73l.21.19a.49.49,0,0,0,.34.12.5.5,0,0,0,.33-.14A.43.43,0,0,0,11.85,5.27Z"/></g></g></svg>