<svg xmlns="http://www.w3.org/2000/svg" viewBox="0 0 58 59"><defs><style>.cls-1{fill:#344154;}.cls-2{fill:#ffc524;}</style></defs><title>how_1</title><g id="Layer_2" data-name="Layer 2"><g id="Layer_1-2" data-name="Layer 1"><path class="cls-1" d="M42.05,45.07H16L13.38,36.5V15.75a5.36,5.36,0,0,1,5.33-5.37H39.3a5.36,5.36,0,0,1,5.33,5.37V36.5Zm-25-1.4H41l2.23-7.38V15.75a4,4,0,0,0-3.94-4H18.71a4,4,0,0,0-3.93,4V36.29Z"/><path class="cls-1" d="M39.11,41.13H33.72a2.72,2.72,0,0,1,0-5.44h7.2Zm-5.39-4a1.32,1.32,0,0,0,0,2.64h4.39L39,37.09Z"/><path class="cls-1" d="M24.29,41.13H18.9l-1.81-5.44h7.2a2.72,2.72,0,0,1,0,5.44Zm-4.39-1.4h4.39a1.32,1.32,0,0,0,0-2.64H19Z"/><path class="cls-1" d="M49,50.08a.74.74,0,0,1-.5-.2.71.71,0,0,1,0-1,28,28,0,0,0,0-39.34,27.46,27.46,0,0,0-39,0,28,28,0,0,0,0,39.34.71.71,0,0,1,0,1,.69.69,0,0,1-1,0,29.36,29.36,0,0,1,0-41.32,28.85,28.85,0,0,1,41,0,29.4,29.4,0,0,1,0,41.32A.73.73,0,0,1,49,50.08Z"/><path class="cls-1" d="M20.18,55.6a1,1,0,0,1-.23,0,.72.72,0,0,1-.43-.9l2.69-7.8a.69.69,0,1,1,1.31.46l-2.68,7.8A.71.71,0,0,1,20.18,55.6Z"/><path class="cls-1" d="M14.88,59a.56.56,0,0,1-.25,0,.69.69,0,0,1-.4-.9l4.2-11.2a.69.69,0,1,1,1.3.49l-4.2,11.21A.69.69,0,0,1,14.88,59Z"/><path class="cls-1" d="M37.83,55.6a.71.71,0,0,1-.66-.48l-2.68-7.8a.7.7,0,0,1,1.32-.46l2.68,7.8a.72.72,0,0,1-.43.9A.93.93,0,0,1,37.83,55.6Z"/><path class="cls-1" d="M43.13,59a.7.7,0,0,1-.65-.45l-4.2-11.21a.7.7,0,0,1,.41-.9.68.68,0,0,1,.89.41l4.21,11.2a.7.7,0,0,1-.41.9A.53.53,0,0,1,43.13,59Z"/><path class="cls-1" d="M34.62,55.6H23.39a.71.71,0,0,1,0-1.41H34.62a.71.71,0,0,1,0,1.41Z"/><path class="cls-1" d="M32.82,50.39H25.19a.7.7,0,0,1,0-1.4h7.63a.7.7,0,0,1,0,1.4Z"/><path class="cls-2" d="M41,15.89A1.89,1.89,0,0,0,39.14,14H18.85A1.9,1.9,0,0,0,17,15.89V33.36h4.78L41,23.67Z"/></g></g></svg>