<svg xmlns="http://www.w3.org/2000/svg" viewBox="0 0 57 40"><defs><style>.cls-1{fill:#344154;}.cls-2{fill:#35b4cf;}</style></defs><title>how_2</title><g id="Layer_2" data-name="Layer 2"><g id="Layer_1-2" data-name="Layer 1"><path class="cls-1" d="M17.11,27.32H7.7a.65.65,0,0,1,0-1.3h8.1v-.89a2.49,2.49,0,0,0-2.11-2.44l-6.08-.83a.65.65,0,0,1-.56-.74.65.65,0,0,1,.74-.55l6.08.83a3.79,3.79,0,0,1,3.24,3.73Z"/><path class="cls-1" d="M49.68,40h-2a4.33,4.33,0,0,1-4.32-4.32V34.29H13.69v1.39A4.33,4.33,0,0,1,9.37,40h-2A4.33,4.33,0,0,1,3,35.68V20.19a1.9,1.9,0,0,0-1-1.65L1,17.92a1.55,1.55,0,0,1-1-1.43v-3A1.54,1.54,0,0,1,1.54,12H4.45a2.65,2.65,0,0,0,2.33-1.38L11,2.8A5.39,5.39,0,0,1,15.75,0h25.5A5.39,5.39,0,0,1,46,2.8l4.24,7.77A2.65,2.65,0,0,0,52.55,12h2.91A1.54,1.54,0,0,1,57,13.49v3a1.55,1.55,0,0,1-1,1.43L55,18.54a1.88,1.88,0,0,0-1,1.65V35.68A4.33,4.33,0,0,1,49.68,40ZM12.39,33H44.61v2.7a3,3,0,0,0,3,3h2a3,3,0,0,0,3-3V20.19a3.22,3.22,0,0,1,1.62-2.79l1.23-.68a.25.25,0,0,0,.15-.23v-3a.23.23,0,0,0-.23-.23H52.55a4,4,0,0,1-3.48-2.07L44.83,3.43A4.08,4.08,0,0,0,41.25,1.3H15.75a4.08,4.08,0,0,0-3.58,2.13L7.93,11.19a4,4,0,0,1-3.48,2.07H1.54a.23.23,0,0,0-.23.23v3a.25.25,0,0,0,.15.23l.1,0,1.13.64a3.22,3.22,0,0,1,1.62,2.79V35.68a3,3,0,0,0,3,3h2a3,3,0,0,0,3-3Z"/><path class="cls-2" d="M23.59,12.68H45.51l-4-7.26a1.3,1.3,0,0,0-1.14-.67H16.59a1.3,1.3,0,0,0-1.14.67l-4,7.26Z"/><path class="cls-1" d="M49.3,27.32H39.89V25.13a3.79,3.79,0,0,1,3.23-3.73l6.09-.83a.65.65,0,1,1,.18,1.29l-6.09.83a2.49,2.49,0,0,0-2.1,2.44V26h8.1a.65.65,0,1,1,0,1.3Z"/><path class="cls-1" d="M32.8,27.46H24.2a3,3,0,0,1-3-2.65l-.43-3.71H36.22l-.43,3.71A3,3,0,0,1,32.8,27.46ZM22.25,22.4l.26,2.26a1.7,1.7,0,0,0,1.69,1.5h8.6a1.7,1.7,0,0,0,1.69-1.5l.26-2.26Z"/><path class="cls-1" d="M13,34.29H9.2a.65.65,0,0,1-.65-.65A.66.66,0,0,1,9.2,33H13a.66.66,0,0,1,.65.66A.65.65,0,0,1,13,34.29Z"/><path class="cls-1" d="M47.8,34.29H44a.65.65,0,0,1-.65-.65A.66.66,0,0,1,44,33H47.8a.66.66,0,0,1,.65.66A.65.65,0,0,1,47.8,34.29Z"/></g></g></svg>