<svg xmlns="http://www.w3.org/2000/svg" viewBox="0 0 52 41"><defs><style>.cls-1{fill:#344154;}.cls-2{fill:none;}.cls-3{fill:#00a84f;}</style></defs><title>how_3</title><g id="Layer_2" data-name="Layer 2"><g id="Layer_1-2" data-name="Layer 1"><path class="cls-1" d="M18.53,27.67l-7.4-1.78a1.08,1.08,0,0,0-.77.11.65.65,0,0,0-.35.55v5.09a.8.8,0,0,0,.87.69h7.4a.8.8,0,0,0,.87-.69V28.33A.74.74,0,0,0,18.53,27.67ZM17.41,31H11.75V27.48l5.66,1.36Z"/><path class="cls-1" d="M33.72,32.33h7.4a.8.8,0,0,0,.87-.69V26.55a.65.65,0,0,0-.35-.55,1.08,1.08,0,0,0-.77-.11l-7.4,1.78a.74.74,0,0,0-.62.66v3.31A.8.8,0,0,0,33.72,32.33Zm.87-3.49,5.66-1.36V31H34.59Z"/><path class="cls-1" d="M21.78,28.38a.8.8,0,0,0,.87.69h6.7a.71.71,0,1,0,0-1.38h-6.7A.8.8,0,0,0,21.78,28.38Z"/><path class="cls-1" d="M29.35,31h-6.7a.71.71,0,1,0,0,1.38h6.7a.71.71,0,1,0,0-1.38Z"/><polygon class="cls-2" points="1.74 15.19 5.22 16.6 5.22 9.25 1.74 9.25 1.74 15.19"/><rect class="cls-2" x="9.86" y="37.88" width="3.87" height="1.74"/><rect class="cls-2" x="37.54" y="37.88" width="3.87" height="1.74"/><polygon class="cls-2" points="46.78 16.6 50.26 15.19 50.26 9.25 46.78 9.25 46.78 16.6"/><path class="cls-1" d="M51.13,7.87H46.78V4.39c0-1.19-1.09-2.11-2.91-2.45C30.22-.65,18.52-.65,8.08,2,5.72,2.54,5.22,3.6,5.22,4.39v.75s0,0,0,0V7.87H.87A.8.8,0,0,0,0,8.56v7a.71.71,0,0,0,.47.62l4.75,1.92V35.43A2.68,2.68,0,0,0,7.66,37.8a1,1,0,0,0,.36.07l.1,0v2.42A.8.8,0,0,0,9,41h5.62a.8.8,0,0,0,.87-.69V37.9H35.8v2.41a.8.8,0,0,0,.87.69h5.62a.8.8,0,0,0,.87-.69V37.9h.5c1.72,0,3.12-1.11,3.12-2.47V18.15l4.75-1.92a.7.7,0,0,0,.47-.62v-7A.8.8,0,0,0,51.13,7.87ZM5.22,16.6,1.74,15.19V9.25H5.22Zm8.51,23H9.86V37.88h3.87Zm27.69,0H37.54V37.88h3.88ZM45,6.76c-.12,0,.12,0,0,0V22.19h0V35.43h0a1.26,1.26,0,0,1-1.38,1.09h-.45l-.15,0H8.2A1.22,1.22,0,0,1,7,35.43V22.78H7V5.64H7V4.39c0-.2,0-.72,1.65-1.12C18.73.75,30.13.75,43.46,3.28c.59.11,1.58.4,1.58,1.11Zm5.22,8.43L46.78,16.6V9.25h3.48Z"/><path class="cls-3" d="M41.63,22.19V6.34a140.54,140.54,0,0,0-15.55-.87l-.08,0h-.07A133.54,133.54,0,0,0,10,6.43V22.19Z"/></g></g></svg>