<svg xmlns="http://www.w3.org/2000/svg" viewBox="0 0 20 20"><defs><style>.cls-1{fill:#ffc524;}</style></defs><title>info</title><g id="Layer_2" data-name="Layer 2"><g id="Layer_1-2" data-name="Layer 1"><path class="cls-1" d="M17.07,17.07a10,10,0,1,0-14.55-.44l.09.07A4.72,4.72,0,0,1,.55,19a.4.4,0,0,0,.12.74,5.64,5.64,0,0,0,4.25-1.15l0,0A10,10,0,0,0,17.07,17.07ZM10.42,3.83a1.64,1.64,0,0,1,0,3.28,1.64,1.64,0,1,1,0-3.28ZM7.81,14.34c.07-.58.16-1.18.27-1.75.17-1,.35-2,.54-3.05,0-.07,0-.14,0-.19,0-.41-.14-.58-.56-.62-.18,0-.37-.05-.53-.09a.38.38,0,0,1-.27-.42c0-.19.13-.3.37-.32a1.5,1.5,0,0,1,.37,0h3.09a.55.55,0,0,1,.62.56,5.76,5.76,0,0,1-.09.94c-.21,1.16-.41,2.34-.64,3.49-.07.4-.14.77-.19,1.16a1.43,1.43,0,0,0,0,.55.43.43,0,0,0,.48.35,2.3,2.3,0,0,0,.6-.16l.46-.23a.26.26,0,0,1,.37.32.83.83,0,0,1-.23.39,3,3,0,0,1-2.15,1,6.57,6.57,0,0,1-1.17-.07A1.8,1.8,0,0,1,7.81,14.34Z"/></g></g></svg>