<svg xmlns="http://www.w3.org/2000/svg" viewBox="0 0 68 73"><defs><style>.cls-1{fill:#94d8f1;}.cls-2{fill:#f1ea38;}.cls-2,.cls-3,.cls-57,.cls-58,.cls-59,.cls-60,.cls-61,.cls-62{fill-rule:evenodd;}.cls-3{fill:#fff100;}.cls-4{fill:#f6921e;}.cls-5{fill:#8bc53f;}.cls-6{fill:#ed4096;}.cls-7{fill:#aa8236;}.cls-8{fill:#a54194;}.cls-9{fill:#54b848;}.cls-10{fill:#b796c5;}.cls-11{fill:#78823f;}.cls-12{fill:#37b34a;}.cls-13{fill:#00a84f;}.cls-14{fill:#53623f;}.cls-15{fill:#3a6040;}.cls-16{fill:#265f41;}.cls-17{fill:#1d5f41;}.cls-18{fill:#c8d92b;}.cls-19{fill:#72be44;}.cls-20{fill:#f05838;}.cls-21{fill:#ce8a2d;}.cls-22{fill:#807b3d;}.cls-23{fill:#ee3e23;}.cls-24{fill:#a94032;}.cls-25{fill:#7b88bf;}.cls-26{fill:#a95341;}.cls-27{fill:#bed630;}.cls-28{fill:#b95430;}.cls-29{fill:#7dc142;}.cls-30{fill:#6b8041;}.cls-31{fill:#8a5138;}.cls-32{fill:#ce6fab;}.cls-33{fill:#d14d2a;}.cls-34{fill:#52499d;}.cls-35{fill:#a4509e;}.cls-36{fill:#483e97;}.cls-37{fill:#9066a7;}.cls-38{fill:#a56735;}.cls-39{fill:#7b623b;}.cls-40{fill:#81c241;}.cls-41{fill:#00ab4e;}.cls-42{fill:#e04433;}.cls-43{fill:#674439;}.cls-44{fill:#50443b;}.cls-45{fill:#8e4436;}.cls-46{fill:#4b443b;}.cls-47{fill:#3f443b;}.cls-48{fill:#e8a83a;}.cls-49{fill:#91913c;}.cls-50{fill:#bc9b32;}.cls-51{fill:#c5573a;}.cls-52{fill:#a55534;}.cls-53{fill:#898f3e;}.cls-54{fill:#e03833;}.cls-55{fill:#6a64a8;}.cls-56{fill:#684439;}.cls-57{fill:#e05629;}.cls-58{fill:#de3f27;}.cls-59{fill:#e58f25;}.cls-60{fill:#c28730;}.cls-61{fill:#797a3e;}.cls-62{fill:#afd136;}.cls-63{fill:#2ab24b;}</style></defs><title>k</title><g id="Layer_2" data-name="Layer 2"><g id="Layer_1-2" data-name="Layer 1"><path class="cls-1" d="M41.37,57.29a9,9,0,0,0-1.22,1.17,2.75,2.75,0,0,1,.35,1.36,2.83,2.83,0,0,1-2.32,2.79,8.88,8.88,0,0,0,17.29,3.92,11.72,11.72,0,0,1-2.07.18,8.86,8.86,0,0,1-7.33-3.55Z"/><path class="cls-2" d="M43.24,12a15.37,15.37,0,0,1,14.2,9.4L49.53,32.91l4.32,5.43a15.4,15.4,0,0,1-26-11.08,15.23,15.23,0,0,1,1.6-6.8l.75,2.5,6.44-9.52A15.3,15.3,0,0,1,43.24,12Z"/><path class="cls-3" d="M47.34,42a15.45,15.45,0,0,1-1.82.38,8.65,8.65,0,0,0-.71-.89,18.93,18.93,0,0,1,2.07-1.36h0A10.64,10.64,0,0,0,47.34,42Z"/><path class="cls-4" d="M66.11,35.45a2,2,0,0,0-.82.18,3.42,3.42,0,0,1-.43,3.13,1.89,1.89,0,1,0,1.25-3.31Z"/><path class="cls-5" d="M3.07,39.22A2.55,2.55,0,0,0,.52,41.76a2.51,2.51,0,0,0,.93,2,7.75,7.75,0,0,1,4-2.84A2.56,2.56,0,0,0,3.07,39.22Z"/><path class="cls-6" d="M37.65,57a2.84,2.84,0,1,0,0,5.67,3.08,3.08,0,0,0,.53,0,8.85,8.85,0,0,1,2-4.15A2.83,2.83,0,0,0,37.65,57Z"/><path class="cls-4" d="M6.39,17A4.32,4.32,0,1,0,7.92,25.4V17.32A4.29,4.29,0,0,0,6.39,17Z"/><path class="cls-1" d="M62,33.35A3.46,3.46,0,0,0,58.8,35.6a6.62,6.62,0,0,1,4.83,4.23,3.34,3.34,0,0,0,1.23-1.07,1.93,1.93,0,0,1-.65-1.43,1.89,1.89,0,0,1,1.08-1.7A3.45,3.45,0,0,0,62,33.35Z"/><path class="cls-7" d="M65.29,35.63a1.89,1.89,0,0,0-1.08,1.7,1.93,1.93,0,0,0,.65,1.43,3.42,3.42,0,0,0,.43-3.13Z"/><path class="cls-8" d="M40.15,58.46a8.85,8.85,0,0,0-2,4.15,2.83,2.83,0,0,0,2.32-2.79A2.75,2.75,0,0,0,40.15,58.46Z"/><path class="cls-5" d="M57.41,35.45a6.61,6.61,0,0,0-4.48,1.74l.49.61,7.66,9.65a6.55,6.55,0,0,0,2.55-7.62,3.45,3.45,0,0,1-5-3,3.57,3.57,0,0,1,.21-1.18A6.37,6.37,0,0,0,57.41,35.45Z"/><path class="cls-9" d="M58.8,35.6a3.57,3.57,0,0,0-.21,1.18,3.45,3.45,0,0,0,5,3A6.62,6.62,0,0,0,58.8,35.6Z"/><path class="cls-10" d="M7.66,40.57a7.88,7.88,0,0,0-2.19.31,2.59,2.59,0,0,1,.16.88,2.56,2.56,0,0,1-4.18,2A7.61,7.61,0,0,0,7.66,55.8H8c0-.43,0-.86,0-1.31V40.58Z"/><path class="cls-11" d="M5.47,40.88a7.75,7.75,0,0,0-4,2.84,2.56,2.56,0,0,0,4.18-2A2.59,2.59,0,0,0,5.47,40.88Z"/><path class="cls-5" d="M49.33.24c-.2,0-.4.07-.59.12h0L48.4.44h-.1l-.11,0h-.06l-.08,0h0L48,.57l-.08,0-.08,0-.08,0-.17.06-.08,0a9.66,9.66,0,0,0-2.86,1.71l-.07.06-.07.06-.06.06h.13a8.4,8.4,0,0,1,4.84,1.51l.33-.59a8.5,8.5,0,0,1-.34-2.38c0-.32,0-.63.05-.94Z"/><path class="cls-12" d="M62.42,8.33A8.43,8.43,0,0,1,61,9.07a10.58,10.58,0,0,1-3,4,8.56,8.56,0,0,1,3.91,1.62h0l0-.05c.06-.12.11-.24.16-.36l0,0v0h0c.06-.15.11-.29.16-.43h0l0-.06a4.42,4.42,0,0,0,.15-.48h0V13h0V13h0l0-.11h0l0-.06v-.12h0l0-.17h0v-.25h0v-.1h0v-.29l0-.15h0v-.17h0V11.2c0-.11,0-.22,0-.33v-.25h0v-.14h0v-.3h0v-.08h0V10h0V9.94h0V9.74a1.5,1.5,0,0,1,0-.2v-.1h0V9.29h0V9.21h0c0-.14-.05-.29-.08-.43h0l-.06-.29h0l0-.12Z"/><path class="cls-13" d="M52.25,7.51a8.46,8.46,0,0,1,.8,3.59c0,.09,0,.19,0,.29a8.39,8.39,0,0,1-.53,2.66,8.68,8.68,0,0,1,2.85-1,8.61,8.61,0,0,1,2.55,0,10.58,10.58,0,0,0,3-4,8.61,8.61,0,0,1-3.06.56,8.52,8.52,0,0,1-5.64-2.12Zm-2.54-4h0l-.33.59a5.83,5.83,0,0,1,.78.61A8.67,8.67,0,0,1,49.71,3.55Z"/><path class="cls-5" d="M40.89,7.17l-4.45,6.57a8.79,8.79,0,0,0,.72,1.59c.36-.05.73-.09,1.1-.11a11.13,11.13,0,0,1,4.48-4A10.52,10.52,0,0,1,40.89,7.17Z"/><path class="cls-13" d="M44.54,2.63H44.4l0,0h0l-.19.17h0l0,0h0l0,0h0l0,0h0l0,0h0l0,0h0l0,0h0l0,0h0l0,0h0l0,0h0l0,0h0l0,0h0l-.14.15h0l0,0h0l0,0h0l0,0h0l0,0h0l-.11.12,0,0h0l0,0h0l0,0h0l0,0h0l0,0h0l0,0h0l0,0h0l0,0h0l-.2.25h0l0,0h0l0,.05h0l0,0h0l0,0h0l0,0h0l0,0h0l0,0h0l0,0h0l0,0h0l0,0h0l0,0h0l0,0h0l0,0h0l0,0h0l0,.05h0l0,0h0l0,0h0l0,0h0l0,0,0,0,0,0,0,0-1.31,2a10.52,10.52,0,0,0,1.85,4,10.65,10.65,0,0,0,5.72,3.87,14,14,0,0,1-.69-4.36c0-.22,0-.44,0-.66a14.06,14.06,0,0,1,1.59-5.89A8.4,8.4,0,0,0,44.54,2.63Z"/><path class="cls-13" d="M49.38,4.14A14.06,14.06,0,0,0,47.79,10c0,.22,0,.44,0,.66a14,14,0,0,0,.69,4.36,11,11,0,0,0,2.25.35,8.56,8.56,0,0,1,1.8-1.35A8.39,8.39,0,0,0,53,11.39c0-.1,0-.2,0-.29a8.46,8.46,0,0,0-.8-3.59,8.59,8.59,0,0,1-2.09-2.76A5.83,5.83,0,0,0,49.38,4.14Z"/><path class="cls-14" d="M51.12.1H49.55l-.13,0a7.73,7.73,0,0,0-.05.84h0v0h0v0h0v0h0v.08a8.7,8.7,0,0,0,.34,2.3A14.45,14.45,0,0,1,52.46.17h0L52,.13h-.88Z"/><path class="cls-15" d="M61.7,6.46A10,10,0,0,1,61,9.07a9.15,9.15,0,0,0,1.47-.73v0h0l0-.1V8.12l0-.11h0V7.88h0l0-.1h0c-.08-.24-.17-.47-.26-.7V7h0Q61.85,6.74,61.7,6.46Z"/><path class="cls-16" d="M52.46.17a14.45,14.45,0,0,0-2.75,3.38,8.1,8.1,0,0,0,.45,1.19,8.49,8.49,0,0,1,2.09,2.77,8.52,8.52,0,0,0,5.64,2.12h0a8.34,8.34,0,0,0,3-.56,10,10,0,0,0,.75-2.61l-.12-.24,0,0,0-.07,0,0c-.1-.18-.22-.36-.34-.55l0,0h0l-.06-.09h0l0-.05h0L61,5.25h0l-.06-.1h0l0-.07h0V5h0L60.76,5h0l0,0h0l0-.06,0,0-.08-.1h0l0,0-.06-.07,0,0,0,0,0,0h0l0,0-.07-.08L60.2,4.3l0,0,0,0-.07-.07h0l0,0h0L59.91,4l-.14-.14-.05,0h0l0,0-.06,0h0l0,0-.05,0,0,0,0,0h0l-.16-.14,0,0,0,0h0l-.09-.09L59,3.1l0,0L58.86,3l0,0,0,0-.07-.06,0,0h0l-.19-.15h0l-.19-.14-.08-.07h0l-.06,0,0,0L58,2.33l-.1-.07h0l-.1-.07-.08,0h0l0,0L57.56,2c-.12-.08-.24-.16-.37-.23h0L57,1.7h0l0,0-.06,0-.09,0,0,0c-.26-.15-.53-.28-.79-.4h0l-.18-.08h0l0,0-.08,0-.09,0,0,0L55.12.8h0L55,.76h0l-.08,0L54.47.58h0l-.2-.06h-.06l-.07,0L53.7.38h0l-.1,0c-.34-.07-.67-.13-1-.17h-.11Z"/><path class="cls-17" d="M50.16,4.74a8.52,8.52,0,0,0,2.09,2.77A8.49,8.49,0,0,0,50.16,4.74Z"/><path class="cls-18" d="M48.76,32.12a10.94,10.94,0,0,0-2,6.34v.08a12.18,12.18,0,0,0,.13,1.6,19.19,19.19,0,0,1,5.27-2.08,7.13,7.13,0,0,1,.78-.87l-3.4-4.28.71-1,2-3A11.29,11.29,0,0,0,48.76,32.12Z"/><path class="cls-19" d="M52.93,37.19a7.13,7.13,0,0,0-.78.87c.42-.1.84-.19,1.27-.26Z"/><path class="cls-20" d="M37.43,38.23a9.82,9.82,0,0,0-4.23.94A12.09,12.09,0,0,1,31,44c.26.4.5.8.73,1.22h0l5.84,7.28a19.58,19.58,0,0,1,7.24-11A9.92,9.92,0,0,0,37.43,38.23Z"/><path class="cls-4" d="M41.84,56.94l-.55.25.08.1.47-.35ZM59,65.31l.23-.13h0l.09-.05,0,0,.06,0h0l.07,0,.09,0h0l.09,0,0,0,.06,0h0l.07,0,.09-.06h0l.09-.06,0,0,.06,0,.06,0,0,0,.08-.06h0l.09-.06h0l.24-.17h0l.09-.07h0l.07-.06,0,0,0,0,.07-.05,0,0,.09-.07h0l.09-.07.26-.22a9.54,9.54,0,0,0,3.66-7.53,10.83,10.83,0,0,0-2.67-6.8l-.44-.55a11.24,11.24,0,0,1-4.19.81,11.12,11.12,0,0,1-11-9.4h0a20.59,20.59,0,0,0-2.07,1.37,9.84,9.84,0,0,1-1.76,14.73,8.94,8.94,0,0,1,3.87-.88,8.84,8.84,0,0,1,8.87,8.82,8.73,8.73,0,0,1-.32,2.36,12.06,12.06,0,0,0,1.7-.42l.1,0,.29-.11.1,0h0l.12,0h0l.06,0,.07,0h0l.09,0h0l.1,0h0l.07,0,0,0h0l0,0,.07,0,.09,0h0l.08,0,.05,0,.1,0h0l.09-.05h0l.08,0Z"/><path class="cls-7" d="M46.92,55.35a8.94,8.94,0,0,0-3.87.88,9.81,9.81,0,0,1-1.21.71l-.47.35,4.7,5.87a8.86,8.86,0,0,0,7.33,3.55h1.44l.19,0h.13l.31,0a8.73,8.73,0,0,0,.32-2.36A8.84,8.84,0,0,0,46.92,55.35Z"/><path class="cls-21" d="M52.15,38.06a19.49,19.49,0,0,0-5.27,2.07,11.12,11.12,0,0,0,11,9.4,11.24,11.24,0,0,0,4.19-.81l-.49-.62-.51-.65A6.61,6.61,0,0,1,50.81,42,6.45,6.45,0,0,1,52.15,38.06Z"/><path class="cls-22" d="M53.42,37.8c-.43.07-.85.16-1.27.26A6.45,6.45,0,0,0,50.81,42a6.61,6.61,0,0,0,10.27,5.44L57.57,43Z"/><path class="cls-23" d="M44.81,41.5a19.58,19.58,0,0,0-7.24,11l1.88,2.36,1.84,2.3.55-.25a8.53,8.53,0,0,1,1.21-.71A9.84,9.84,0,0,0,44.81,41.5Z"/><path class="cls-24" d="M43.05,56.23a8.53,8.53,0,0,0-1.21.71A9.81,9.81,0,0,0,43.05,56.23Z"/><path class="cls-1" d="M27.55,47.15a12.31,12.31,0,0,1-12.27.24c0,.26,0,.53,0,.79A7.51,7.51,0,0,1,15,50.47a13,13,0,0,1,5.45,16.15c.41-.05.82-.13,1.22-.22h0a10.72,10.72,0,0,0,2.49-.94h0l.08,0a4.39,4.39,0,0,0,.47-.27h0l.08-.05L25,65l.08,0h0l.09-.06h0l.1-.07h0l.08,0h0c.25-.18.5-.36.74-.56h0l.07-.06,0,0,.09-.07h0l.53-.47a11.34,11.34,0,0,0,3.37-8.62v0a9.84,9.84,0,0,1-2.7-6.77c0-.32,0-.64,0-1Zm-19.63-12h0v5.45a7.1,7.1,0,0,1,1.74.26A12.2,12.2,0,0,1,9,36.73,12,12,0,0,1,9,35.25C8.66,35.22,8.29,35.18,7.92,35.13Z"/><path class="cls-25" d="M7.92,40.58v8.1h.4A13.13,13.13,0,0,1,15,50.47a7.51,7.51,0,0,0,.35-2.29c0-.26,0-.53,0-.79a12.23,12.23,0,0,1-5.62-6.55A7.1,7.1,0,0,0,7.92,40.58Z"/><path class="cls-26" d="M30.21,45a11.91,11.91,0,0,1-2.66,2.18c0,.31,0,.63,0,1a9.84,9.84,0,0,0,2.7,6.77V45Zm.67-.78.85,1.06c-.23-.42-.47-.82-.73-1.22h0Z"/><path class="cls-27" d="M27.71,27A21.24,21.24,0,0,1,16.4,34.58a21.3,21.3,0,0,1,13.17,7.5,9.82,9.82,0,0,1,3.63-2.91,12.31,12.31,0,0,0,.24-2.44c0-.26,0-.52,0-.77A11.07,11.07,0,0,1,27.71,27Z"/><path class="cls-28" d="M33.2,39.17a9.82,9.82,0,0,0-3.63,2.91A21.22,21.22,0,0,1,31,44,12.09,12.09,0,0,0,33.2,39.17Z"/><path class="cls-29" d="M16.4,34.58a21.42,21.42,0,0,1-5.59.74c-.6,0-1.18,0-1.77-.07,0,.45-.08.9-.09,1.36v.19a12.34,12.34,0,0,0,.71,4,7.62,7.62,0,0,1,5.62,6.55,12.31,12.31,0,0,0,12.27-.24,9.84,9.84,0,0,1,2-5.07A21.3,21.3,0,0,0,16.4,34.58Z"/><path class="cls-30" d="M9.66,40.84a12.23,12.23,0,0,0,5.62,6.55A7.62,7.62,0,0,0,9.66,40.84Z"/><path class="cls-31" d="M29.57,42.08a9.84,9.84,0,0,0-2,5.07A11.91,11.91,0,0,0,30.21,45V43.35l.67.84L31,44A21.22,21.22,0,0,0,29.57,42.08Z"/><path class="cls-32" d="M14.93,5.07A13,13,0,0,1,8.11,9.59v0h0v0h0v.43H8v.1H8v.06H8v.25H8v0H8v.08l0,.18v0H8V11H8v.15h0v.14h0v.31h0v.15h0v5.55a4.3,4.3,0,0,1,0,8.08V35c.4-.1.8-.18,1.2-.26a12.26,12.26,0,0,1,18.57-8.29v-.13a11,11,0,0,1,2.52-7V10.73h0v-.27l-.06-.74h0a12.68,12.68,0,0,0-.41-2.14,10.41,10.41,0,0,1-6.18,2A10.42,10.42,0,0,1,14.93,5.07Z"/><path class="cls-33" d="M7.92,17.32V25.4a4.3,4.3,0,0,0,0-8.08Z"/><path class="cls-34" d="M13.38,1.56a10.25,10.25,0,0,0-1.16.83l0,0,0,0c-.16.13-.31.27-.46.41l0,0,0,0,0,0h0L11.52,3l0,0h0l0,0-.17.17h0l0,0-.07.06h0l-.1.1L11,3.53l0,0-.05.06h0c-.06.07-.13.14-.19.22v0l0,0L10.66,4h0L10.59,4l-.06.08h0l-.07.08v0l-.06.07,0,0h0l-.07.09,0,0h0l-.06.09-.13.18L10,4.8v0l-.06.08v0l0,.07-.05.09h0l-.05.08-.06.1h0l0,.09,0,0h0l-.07.11h0l0,0,0,.09h0l-.05.09h0l0,.09h0L9.28,6l0,.09,0,.07v0l0,.06,0,0,0,.09h0l0,.1v0l0,.07,0,.06,0,0,0,.09h0a2.44,2.44,0,0,0-.1.24h0l0,0,0,.09,0,.11v0l0,.09-.07.2,0,.1,0,.06v.09l0,0-.12.42,0,.07v.06a11.36,11.36,0,0,0-.24,1.16,13,13,0,0,0,6.82-4.52A10.18,10.18,0,0,1,13.38,1.56Z"/><path class="cls-35" d="M19.32,0h-.59c-.4,0-.79,0-1.17.1h-.27a12.84,12.84,0,0,1-2.36,4.92,10.42,10.42,0,0,0,8.59,4.51,10.41,10.41,0,0,0,6.18-2,10.49,10.49,0,0,0-.93-2.22l-.16-.27,0,0a6.18,6.18,0,0,0-.36-.53v0l-.29-.39L27.87,4l0,0-.08-.1h0l-.05,0v0l-.07-.08,0,0h0l0,0-.06-.06h0l-.06,0,0,0-.06-.07-.06-.06h0L27.2,3.3h0l-.1-.09,0,0L27,3.12l0,0,0,0L26.89,3A10.92,10.92,0,0,0,19.32,0Z"/><path class="cls-36" d="M17.22.16h-.08a8.43,8.43,0,0,0-.9.19h0a10.29,10.29,0,0,0-2.85,1.19,10.18,10.18,0,0,0,1.55,3.51A12.84,12.84,0,0,0,17.29.15Z"/><path class="cls-37" d="M9.12,34.7c-.4.08-.8.16-1.2.26v.17c.37,0,.74.09,1.12.12C9.06,35.06,9.09,34.88,9.12,34.7Z"/><path class="cls-38" d="M21.21,24.55A12.26,12.26,0,0,0,9.12,34.7a21.85,21.85,0,0,1,4-.37,21,21,0,0,1,3.29.25A21.24,21.24,0,0,0,27.71,27c0-.2,0-.4,0-.59A12.14,12.14,0,0,0,21.21,24.55Z"/><path class="cls-39" d="M13.11,34.33a21.85,21.85,0,0,0-4,.37c0,.18-.06.36-.08.55.52,0,1,.06,1.57.07h.29a21.66,21.66,0,0,0,5.5-.74A21,21,0,0,0,13.11,34.33Z"/><path class="cls-40" d="M42.74,11.18a11.13,11.13,0,0,0-4.48,4h.56A11.13,11.13,0,0,1,47.3,19.1a8,8,0,0,0,1.4-.62,8.09,8.09,0,0,1,.63-1.33,13.85,13.85,0,0,1-.87-2.1A10.65,10.65,0,0,1,42.74,11.18Z"/><path class="cls-41" d="M48.46,15.05a13.85,13.85,0,0,0,.87,2.1,8.66,8.66,0,0,1,1.38-1.75A11,11,0,0,1,48.46,15.05Z"/><path class="cls-42" d="M49.7,17.82a9.6,9.6,0,0,1-1,.66,8.49,8.49,0,0,0-.47,1.88A10.9,10.9,0,0,1,50,26.28c0,.12,0,.23,0,.35a8.67,8.67,0,0,0,2.43,2.12L56,23.53A14.27,14.27,0,0,1,49.7,17.82Z"/><path class="cls-43" d="M56.33,14.12a10.52,10.52,0,0,1-4.46,1.27,8.42,8.42,0,0,1-2.17,2.43A14.27,14.27,0,0,0,56,23.53l.15-.21,2.61-3.81A10.92,10.92,0,0,0,56.33,14.12Z"/><path class="cls-44" d="M55.36,13.07a8.68,8.68,0,0,0-2.85,1,7.86,7.86,0,0,1-.64,1.34,10.52,10.52,0,0,0,4.46-1.27,10.63,10.63,0,0,0,1.58-1.06,8.61,8.61,0,0,0-2.55,0Z"/><path class="cls-45" d="M49.33,17.15a8.09,8.09,0,0,0-.63,1.33,9.6,9.6,0,0,0,1-.66C49.57,17.6,49.45,17.38,49.33,17.15Z"/><path class="cls-46" d="M51.87,15.39c-.21,0-.42,0-.63,0h-.53a8.66,8.66,0,0,0-1.38,1.75c.12.23.24.45.37.67A8.42,8.42,0,0,0,51.87,15.39Z"/><path class="cls-47" d="M52.51,14.05a8.56,8.56,0,0,0-1.8,1.35h.53c.21,0,.42,0,.63,0A7.86,7.86,0,0,0,52.51,14.05Z"/><path class="cls-48" d="M37.16,15.33a11,11,0,0,0-2.16.55L30.21,23v-.13A21,21,0,0,1,28,26.61,12.18,12.18,0,0,1,33.42,36a11.19,11.19,0,0,0,5.31,1.39h.09a11.14,11.14,0,0,0,9.44-5.19A10.9,10.9,0,0,0,50,26.63a8.44,8.44,0,0,1-1.79-5.2,9.45,9.45,0,0,1,.07-1.07,11.36,11.36,0,0,0-.93-1.26,8.54,8.54,0,0,1-9.58-2.93A9.43,9.43,0,0,1,37.16,15.33Z"/><path class="cls-49" d="M38.26,15.22c-.37,0-.74.06-1.1.11a9.43,9.43,0,0,0,.56.84A8.92,8.92,0,0,1,38.26,15.22Z"/><path class="cls-50" d="M28,26.61l-.3.39a11.07,11.07,0,0,0,5.71,9A12.18,12.18,0,0,0,28,26.61Z"/><path class="cls-51" d="M30.21,19.26a11,11,0,0,0-2.52,7v.13l.32.2a21,21,0,0,0,2.2-3.78Z"/><path class="cls-52" d="M27.69,26.41c0,.19,0,.39,0,.59l.3-.39Z"/><path class="cls-53" d="M38.82,15.21h-.56a8.92,8.92,0,0,0-.54,1A8.54,8.54,0,0,0,47.3,19.1,11.13,11.13,0,0,0,38.82,15.21Z"/><path class="cls-54" d="M48.23,20.36a9.45,9.45,0,0,0-.07,1.07A8.44,8.44,0,0,0,50,26.63c0-.12,0-.23,0-.35A10.9,10.9,0,0,0,48.23,20.36Z"/><path class="cls-25" d="M15,50.47A7.67,7.67,0,0,1,8,55.8v.14H8v.47l.06.45h0c0,.15,0,.29.07.44v.15h0l0,.22c0,.11,0,.22.07.33h0v0l.06.25h0l0,.08v.07l0,.11v.07l.06.22v0h0v0c.07.27.16.53.25.78v0l0,.12h0l.05.13,0,.1v0l.05.12H9l0,.07,0,.06.05.12h0v0l.05.1,0,.07.05.1.08.16,0,.09,0,.08h0l0,.07,0,.08.11.19v.05l.06.1h0l.06.11h0l.06.09,0,0,0,.08h0l.19.29.06.09,0,.05.11.15h0v0l.06.08.05.07,0,.07h0l0,.06.06.07.06.08h0l0,0,.06.08h0l.07.1a10,10,0,0,0,8.13,3.45h.64c.29,0,.58,0,.86-.07A13,13,0,0,0,15,50.47Z"/><path class="cls-55" d="M8.32,48.67h-.4v6h0c0,.33,0,.65,0,1H8v.14H8a7.67,7.67,0,0,0,7-5.33A13.13,13.13,0,0,0,8.32,48.67Z"/><path class="cls-56" d="M57.91,13.06a10.63,10.63,0,0,1-1.58,1.06,10.92,10.92,0,0,1,2.38,5.39l2-3,.11-.16h0l0,0a12.28,12.28,0,0,0,.76-1.28v0h0l.15-.3v0h0l0,0h0A8.56,8.56,0,0,0,57.91,13.06Z"/><path class="cls-57" d="M43.53,42.55h-.29a15.35,15.35,0,0,1-9.79-3.51A10,10,0,0,1,44.81,41.5C44.37,41.83,43.94,42.19,43.53,42.55Z"/><path class="cls-58" d="M45.52,42.39a14.44,14.44,0,0,1-2,.16c.41-.36.84-.72,1.28-1A8.65,8.65,0,0,1,45.52,42.39Z"/><path class="cls-59" d="M47.34,42a15.45,15.45,0,0,1-1.82.38,8.65,8.65,0,0,0-.71-.89,18.93,18.93,0,0,1,2.07-1.36h0A10.64,10.64,0,0,0,47.34,42Z"/><path class="cls-60" d="M51,40.47A15.51,15.51,0,0,1,47.34,42a10.64,10.64,0,0,1-.46-1.87,19.19,19.19,0,0,1,5.27-2.08A6.5,6.5,0,0,0,51,40.47Z"/><path class="cls-61" d="M53.84,38.34A14.91,14.91,0,0,1,51,40.47a6.5,6.5,0,0,1,1.16-2.41c.41-.1.84-.19,1.27-.26Z"/><path class="cls-62" d="M33.25,38.89a15.21,15.21,0,0,1-5.34-10.43A11.1,11.1,0,0,0,33.42,36c0,.25,0,.51,0,.77A11.81,11.81,0,0,1,33.25,38.89Z"/><path class="cls-63" d="M42.75,11.14a10,10,0,0,0,5.71,3.91,17.33,17.33,0,0,1-.61-2.86A17.15,17.15,0,0,0,42.75,11.14Z"/></g></g></svg>