<svg xmlns="http://www.w3.org/2000/svg" viewBox="0 0 226 58"><defs><style>.cls-1{fill:#a6a8ab;}.cls-2{fill:#58595b;}.cls-3{fill:#94d8f1;}.cls-4{fill:#f1ea38;}.cls-4,.cls-5,.cls-59,.cls-60,.cls-61,.cls-62,.cls-63,.cls-64{fill-rule:evenodd;}.cls-5{fill:#fff100;}.cls-6{fill:#f6921e;}.cls-7{fill:#8bc53f;}.cls-8{fill:#ed4096;}.cls-9{fill:#aa8236;}.cls-10{fill:#a54194;}.cls-11{fill:#54b848;}.cls-12{fill:#b796c5;}.cls-13{fill:#78823f;}.cls-14{fill:#37b34a;}.cls-15{fill:#00a84f;}.cls-16{fill:#53623f;}.cls-17{fill:#3a6040;}.cls-18{fill:#265f41;}.cls-19{fill:#1d5f41;}.cls-20{fill:#c8d92b;}.cls-21{fill:#72be44;}.cls-22{fill:#f05838;}.cls-23{fill:#ce8a2d;}.cls-24{fill:#807b3d;}.cls-25{fill:#ee3e23;}.cls-26{fill:#a94032;}.cls-27{fill:#7b88bf;}.cls-28{fill:#a95341;}.cls-29{fill:#bed630;}.cls-30{fill:#b95430;}.cls-31{fill:#7dc142;}.cls-32{fill:#6b8041;}.cls-33{fill:#8a5138;}.cls-34{fill:#ce6fab;}.cls-35{fill:#d14d2a;}.cls-36{fill:#52499d;}.cls-37{fill:#a4509e;}.cls-38{fill:#483e97;}.cls-39{fill:#9066a7;}.cls-40{fill:#a56735;}.cls-41{fill:#7b623b;}.cls-42{fill:#81c241;}.cls-43{fill:#00ab4e;}.cls-44{fill:#e04433;}.cls-45{fill:#674439;}.cls-46{fill:#50443b;}.cls-47{fill:#8e4436;}.cls-48{fill:#4b443b;}.cls-49{fill:#3f443b;}.cls-50{fill:#e8a83a;}.cls-51{fill:#91913c;}.cls-52{fill:#bc9b32;}.cls-53{fill:#c5573a;}.cls-54{fill:#a55534;}.cls-55{fill:#898f3e;}.cls-56{fill:#e03833;}.cls-57{fill:#6a64a8;}.cls-58{fill:#684439;}.cls-59{fill:#e05629;}.cls-60{fill:#de3f27;}.cls-61{fill:#e58f25;}.cls-62{fill:#c28730;}.cls-63{fill:#797a3e;}.cls-64{fill:#afd136;}.cls-65{fill:#2ab24b;}</style></defs><title>logo</title><g id="Layer_2" data-name="Layer 2"><g id="Layer_1-2" data-name="Layer 1"><path class="cls-1" d="M114.37,26.3a1.78,1.78,0,0,1-1.87-1.92V11.84h-4.94v5.53c0,2.79-.77,5.95-2.79,7.68a4.5,4.5,0,0,1-3,1.25,1.6,1.6,0,0,1-1.7-1.7c0-.86.43-1.28,1.4-1.73s2.32-2,2.32-4.76v-7.6a1.78,1.78,0,0,1,1.86-1.92h8.68a1.79,1.79,0,0,1,1.87,1.92V24.38A1.78,1.78,0,0,1,114.37,26.3Z"/><path class="cls-1" d="M98.94,23.76,94.06,10.34a2.82,2.82,0,0,0-2.67-2.05,2.93,2.93,0,0,0-2.67,2.05l-1.28,3.43a1.75,1.75,0,0,1-.11.25l-2.17,5.79S84,23,82.24,22.54c-1.64-.38-2.59-1.75-3.35-2.54l-3.12-3.22.06-.06,4.65-4.53c.82-.82,1.22-1.33,1.22-2a1.8,1.8,0,0,0-1.84-1.77,2,2,0,0,0-1.45.69l-5.07,5.35-1.06,1.11V10.26a1.75,1.75,0,0,0-1.87-1.82,1.79,1.79,0,0,0-1.87,1.82V24.53a1.74,1.74,0,0,0,1.87,1.77,1.77,1.77,0,0,0,1.87-1.77v-6.3l3.94,4.22c1,1.06,3.11,4.36,7.59,3.74,1.39-.2,2.62-1.66,3.65-3.49h7.39L95.6,25a1.74,1.74,0,0,0,1.82,1.28,1.65,1.65,0,0,0,1.72-1.63,2.87,2.87,0,0,0-.2-.91ZM89,19.3h0a44.71,44.71,0,0,0,1.62-5l.7-2.12h0l2.32,7.16Z"/><polygon class="cls-2" points="69.87 36.7 69.87 39.46 73.2 39.46 73.2 36.7 74.05 36.7 74.05 43.29 73.2 43.29 73.2 40.19 69.87 40.19 69.87 43.29 69.01 43.29 69.01 36.7 69.87 36.7"/><path class="cls-2" d="M80.37,43.29h-.79l0-.78a1.84,1.84,0,0,1-1.61.91,1.9,1.9,0,0,1-1.54-.7,2.62,2.62,0,0,1-.58-1.78,2.65,2.65,0,0,1,.58-1.79,1.93,1.93,0,0,1,1.54-.7,1.82,1.82,0,0,1,1.61.9l0-.77h.79v4.71Zm-1.09-3.6h0a1.39,1.39,0,0,0-1.16-.62,1.33,1.33,0,0,0-1.13.6,2.26,2.26,0,0,0-.32,1.25A2.3,2.3,0,0,0,77,42.18a1.32,1.32,0,0,0,1.13.59,1.37,1.37,0,0,0,1.16-.62,2.3,2.3,0,0,0,.28-1.23A2.23,2.23,0,0,0,79.28,39.69Z"/><path class="cls-2" d="M83.08,38.58l0,.76a1.49,1.49,0,0,1,.54-.59,1.74,1.74,0,0,1,1-.28,1.58,1.58,0,0,1,1.38.66,3,3,0,0,1,.34,1.65v2.51H85.5v-2.6a2,2,0,0,0-.18-1,1,1,0,0,0-.9-.49,1.2,1.2,0,0,0-1,.49,1.91,1.91,0,0,0-.3,1.27v2.36h-.84V38.58Z"/><path class="cls-2" d="M88.56,39.19a2.23,2.23,0,0,1,1.74-.76,2.19,2.19,0,0,1,1.74.76,2.88,2.88,0,0,1,0,3.49,2.19,2.19,0,0,1-1.74.76,2.23,2.23,0,0,1-1.74-.76,2.92,2.92,0,0,1,0-3.49Zm.57,2.92h0a1.39,1.39,0,0,0,2.35,0,2.67,2.67,0,0,0,0-2.38,1.39,1.39,0,0,0-2.35,0,2.67,2.67,0,0,0,0,2.38Z"/><polygon class="cls-2" points="96.97 38.58 98.61 43.29 97.71 43.29 96.4 39.17 96.25 39.17 94.94 43.29 94.04 43.29 95.68 38.58 96.97 38.58"/><path class="cls-1" d="M132.08,11.14,125.53,25.3a1.76,1.76,0,0,1-1.6,1.09,1.92,1.92,0,0,1-2-1.78,2.1,2.1,0,0,1,.2-.84l1.44-3.13L119,11.17a1.93,1.93,0,0,1-.2-.87,1.94,1.94,0,0,1,2-1.78,1.76,1.76,0,0,1,1.6,1.09l3.29,6.64,3.06-6.64a1.77,1.77,0,0,1,1.65-1.09,1.89,1.89,0,0,1,1.94,1.78A2.1,2.1,0,0,1,132.08,11.14Z"/><path class="cls-1" d="M155.36,26.39c-.72,0-1.19-.42-1.89-1.16L147,18.32v6.29a1.78,1.78,0,0,1-1.87,1.78,1.74,1.74,0,0,1-1.87-1.78V18.32l-6.45,6.91c-.7.74-1.17,1.16-1.89,1.16a1.73,1.73,0,0,1-2-1.7A2.77,2.77,0,0,1,134,22.81l5.75-5.94-4.71-4.59c-.82-.82-1.22-1.34-1.22-2a1.81,1.81,0,0,1,1.85-1.78,2,2,0,0,1,1.44.7l6.13,6.46V10.35a1.8,1.8,0,0,1,1.87-1.83A1.76,1.76,0,0,1,147,10.35v5.33l6.13-6.46a2,2,0,0,1,1.45-.7,1.8,1.8,0,0,1,1.84,1.78c0,.64-.39,1.16-1.22,2l-4.71,4.59,5.76,5.94a2.81,2.81,0,0,1,1.05,1.88A1.73,1.73,0,0,1,155.36,26.39Z"/><path class="cls-1" d="M167,8.38c1.82,0,5.36.59,5.36,2.76a1.57,1.57,0,0,1-1.55,1.65c-1,0-1.72-.86-3.81-.86-3.09,0-4.69,2.59-4.69,5.6S163.91,23,167,23c2.09,0,2.94-1,4-1a1.75,1.75,0,0,1,1.65,1.68c0,2.37-3.77,2.91-5.61,2.91-5.06,0-8.58-4-8.58-9.08S161.89,8.38,167,8.38Z"/><polygon class="cls-2" points="100.97 38.64 100.97 40.55 103.29 40.55 103.29 38.64 104.12 38.64 104.12 43.35 103.29 43.35 103.29 41.2 100.97 41.2 100.97 43.35 100.13 43.35 100.13 38.64 100.97 38.64"/><path class="cls-2" d="M106.79,38.64v2.6a2,2,0,0,0,.17,1,1,1,0,0,0,.91.49,1.15,1.15,0,0,0,1-.49,2,2,0,0,0,.3-1.27V38.64H110v4.71h-.81l0-.76a1.66,1.66,0,0,1-.54.59,1.76,1.76,0,0,1-1,.28,1.58,1.58,0,0,1-1.38-.66,3,3,0,0,1-.34-1.65V38.64Z"/><polygon class="cls-2" points="115.07 38.64 116.22 40.61 117.07 40.61 117.07 38.64 117.87 38.64 117.87 40.61 118.71 40.61 119.84 38.64 120.72 38.64 119.37 40.84 120.75 43.35 119.86 43.35 118.71 41.15 117.87 41.15 117.87 43.35 117.07 43.35 117.07 41.15 116.22 41.15 115.08 43.35 114.19 43.35 115.57 40.84 114.22 38.64 115.07 38.64"/><path class="cls-2" d="M122.94,38.64v2.6a2,2,0,0,0,.17,1,1,1,0,0,0,.91.49,1.15,1.15,0,0,0,1-.49,2,2,0,0,0,.3-1.27V38.64h.83v4.71h-.8l0-.76a1.66,1.66,0,0,1-.54.59,1.76,1.76,0,0,1-1,.28,1.58,1.58,0,0,1-1.38-.66,3,3,0,0,1-.34-1.65V38.64Z"/><path class="cls-2" d="M129.82,40.62a1.49,1.49,0,0,0,.84-.16.64.64,0,0,0,.28-.59.65.65,0,0,0-.34-.63,1.49,1.49,0,0,0-.73-.16,1.45,1.45,0,0,0-.71.18.91.91,0,0,0-.4.85h-.84a1.67,1.67,0,0,1,.76-1.34,2.36,2.36,0,0,1,1.21-.3,2.5,2.5,0,0,1,1.22.28,1.22,1.22,0,0,1,.64,1.08,1.09,1.09,0,0,1-.27.72,1.45,1.45,0,0,1-.52.33,1.59,1.59,0,0,1,.61.38,1.09,1.09,0,0,1,.3.79,1.28,1.28,0,0,1-.65,1.15,2.4,2.4,0,0,1-1.33.31,2.27,2.27,0,0,1-1.28-.33,1.68,1.68,0,0,1-.73-1.32h.84a.9.9,0,0,0,.36.78,1.24,1.24,0,0,0,.78.23,1.51,1.51,0,0,0,.79-.18A.73.73,0,0,0,131,42a.68.68,0,0,0-.31-.61,1.52,1.52,0,0,0-.88-.17h-.32v-.61Z"/><polygon class="cls-2" points="134.41 38.64 134.41 40.55 136.73 40.55 136.73 38.64 137.57 38.64 137.57 43.35 136.73 43.35 136.73 41.2 134.41 41.2 134.41 43.35 133.58 43.35 133.58 38.64 134.41 38.64"/><path class="cls-2" d="M140.21,38.07v2a1.59,1.59,0,0,1,1.4-.73,2,2,0,0,1,1.44.56,2.23,2.23,0,0,1,.59,1.53,2.18,2.18,0,0,1-.59,1.52,2.14,2.14,0,0,1-1.56.58,2,2,0,0,1-1.69-.79,3.19,3.19,0,0,1-.42-2V38.07Zm2.25,2.34h0a1.24,1.24,0,0,0-1-.45,1.18,1.18,0,0,0-1,.45,1.67,1.67,0,0,0,0,1.94,1.18,1.18,0,0,0,1,.45,1.27,1.27,0,0,0,1-.45,1.82,1.82,0,0,0,0-1.94Z"/><path class="cls-2" d="M148,38.62v2.65a2.07,2.07,0,0,0,.14,1,1,1,0,0,0,.91.51,1.09,1.09,0,0,0,1-.5,1.8,1.8,0,0,0,.27-1.07V38.62h.85V42a1.08,1.08,0,0,0,.16.68.8.8,0,0,0,.7.3v2.2h-.85V43.33a.94.94,0,0,1-.6-.28.92.92,0,0,1-.19-.45,1.6,1.6,0,0,1-.42.51,1.65,1.65,0,0,1-1.11.35,1.54,1.54,0,0,1-1.39-.66,2.77,2.77,0,0,1-.29-1.58v-2.6Z"/><path class="cls-2" d="M153.34,39.26a3.13,3.13,0,0,1,.44-1.93,2,2,0,0,1,1.67-.74,2.25,2.25,0,0,1,1.43.43,1.72,1.72,0,0,1,.29,2.29,1.43,1.43,0,0,1-.7.5,1.53,1.53,0,0,1,.82.49,1.7,1.7,0,0,1,.42,1.2,1.86,1.86,0,0,1-.64,1.48,2.29,2.29,0,0,1-1.56.5,2,2,0,0,1-1.74-.83,3.54,3.54,0,0,1-.43-2V39.26Zm2.13.28h0a1.16,1.16,0,0,0,.9-.33,1.18,1.18,0,0,0,.29-.83,1.09,1.09,0,0,0-.32-.84,1.2,1.2,0,0,0-.89-.3,1.16,1.16,0,0,0-1.09.59,3.17,3.17,0,0,0-.19,1.43v1.39a3.31,3.31,0,0,0,.23,1.53,1.19,1.19,0,0,0,1.11.62,1.25,1.25,0,0,0,1-.39,1.42,1.42,0,0,0,.31-1,1.12,1.12,0,0,0-1.37-1.25H155v-.64Z"/><path class="cls-1" d="M176.68,10.43a1.78,1.78,0,0,1,1.87-1.82,1.74,1.74,0,0,1,1.86,1.82v5.33l6.14-6.46A1.92,1.92,0,0,1,188,8.61a1.8,1.8,0,0,1,1.85,1.77c0,.64-.4,1.16-1.23,2L183.9,17l5.76,5.94a2.83,2.83,0,0,1,1.05,1.88,1.73,1.73,0,0,1-2,1.7c-.72,0-1.19-.42-1.89-1.16l-6.46-6.91v6.29a1.77,1.77,0,0,1-1.86,1.78,1.74,1.74,0,0,1-1.87-1.78Z"/><path class="cls-1" d="M206,26.47a1.78,1.78,0,0,1-1.87-1.92V15.34H204L196,25.66a2.17,2.17,0,0,1-1.57.81,1.77,1.77,0,0,1-1.87-1.92v-14a1.87,1.87,0,1,1,3.74,0v9.33h0l8.07-10.44A2.17,2.17,0,0,1,206,8.61a1.78,1.78,0,0,1,1.87,1.92v14A1.78,1.78,0,0,1,206,26.47Z"/><path class="cls-1" d="M224.13,26.47a1.78,1.78,0,0,1-1.87-1.92V15.34h0l-8.07,10.32a2.17,2.17,0,0,1-1.57.81,1.77,1.77,0,0,1-1.87-1.92v-14a1.87,1.87,0,1,1,3.74,0v9.33h.05l8.07-10.44a2.17,2.17,0,0,1,1.57-.81A1.78,1.78,0,0,1,226,10.53v14a1.78,1.78,0,0,1-1.87,1.92ZM215.38,3.65h0c1.72,0,1,1.67,3,1.67s1.42-1.67,3.24-1.67c.65,0,1.12.83,1.12,1.48,0,1.77-2.32,2.56-4.36,2.56-1.82,0-4.14-.71-4.14-2.56C214.26,4.44,214.56,3.65,215.38,3.65Z"/><path class="cls-2" d="M163.22,41.85a2.07,2.07,0,0,1-.56,1.06,2.18,2.18,0,0,1-1.6.62,2.11,2.11,0,0,1-1.71-.76,3,3,0,0,1,0-3.5,2.06,2.06,0,0,1,1.67-.75,2.12,2.12,0,0,1,1.75.81,2.62,2.62,0,0,1,.48,1.69v.16h-3.63a2.07,2.07,0,0,0,.27,1.11,1.3,1.3,0,0,0,1.17.6,1.37,1.37,0,0,0,1-.37,1.16,1.16,0,0,0,.34-.67Zm-3.28-2.19h0a1.65,1.65,0,0,0-.3,1h2.78a1.51,1.51,0,0,0-.29-1,1.31,1.31,0,0,0-1.1-.53A1.29,1.29,0,0,0,159.94,39.66Z"/><polygon class="cls-2" points="167.91 38.67 167.91 39.33 166.52 39.33 166.52 43.38 165.69 43.38 165.69 39.33 164.3 39.33 164.3 38.67 167.91 38.67"/><path class="cls-2" d="M169.51,39.28a2.37,2.37,0,0,1,3.48,0,2.66,2.66,0,0,1,.59,1.74,2.62,2.62,0,0,1-.59,1.74,2.35,2.35,0,0,1-3.48,0,2.62,2.62,0,0,1-.59-1.74,2.66,2.66,0,0,1,.59-1.74Zm.56,2.92h0a1.39,1.39,0,0,0,1.19.65,1.36,1.36,0,0,0,1.17-.65,2.31,2.31,0,0,0,.27-1.2,2.24,2.24,0,0,0-.27-1.18,1.4,1.4,0,0,0-2.36,0,2.16,2.16,0,0,0-.28,1.18A2.23,2.23,0,0,0,170.07,42.2Z"/><polygon class="cls-2" points="176.18 38.67 177.71 40.55 179.24 38.67 180.14 38.67 180.14 43.38 179.3 43.38 179.3 39.55 177.71 41.49 176.12 39.55 176.12 43.38 175.29 43.38 175.29 38.67 176.18 38.67"/><path class="cls-3" d="M33,45.52a7.19,7.19,0,0,0-1,.93,2.2,2.2,0,0,1,.28,1.08,2.24,2.24,0,0,1-1.85,2.21A7.36,7.36,0,0,0,30.36,51a7.09,7.09,0,0,0,13.91,1.87,10,10,0,0,1-1.65.14,7.06,7.06,0,0,1-5.85-2.82Z"/><path class="cls-4" d="M34.51,9.51A12.28,12.28,0,0,1,45.84,17l-6.31,9.17L43,30.46a12.3,12.3,0,0,1-20.74-8.8,11.94,11.94,0,0,1,1.28-5.4l.6,2,5.14-7.57A12.35,12.35,0,0,1,34.51,9.51Z"/><path class="cls-5" d="M37.78,33.38a14.34,14.34,0,0,1-1.45.3c-.18-.25-.37-.48-.57-.71a18,18,0,0,1,1.65-1.08h0A8.32,8.32,0,0,0,37.78,33.38Z"/><path class="cls-6" d="M52.75,28.17a1.5,1.5,0,0,0-.64.14,2.76,2.76,0,0,1,.15.91,2.65,2.65,0,0,1-.5,1.57,1.5,1.5,0,1,0,1-2.62Z"/><path class="cls-7" d="M2.45,31.16a2,2,0,0,0-1.29,3.58,6.13,6.13,0,0,1,3.21-2.26A2,2,0,0,0,2.45,31.16Z"/><path class="cls-8" d="M30.05,45.27a2.26,2.26,0,1,0,0,4.51,2,2,0,0,0,.42,0A7,7,0,0,1,32,46.45,2.26,2.26,0,0,0,30.05,45.27Z"/><path class="cls-6" d="M5.1,13.54a3.43,3.43,0,1,0,0,6.86,3.52,3.52,0,0,0,1.22-.22V13.76A3.52,3.52,0,0,0,5.1,13.54Z"/><path class="cls-3" d="M49.51,26.5a2.73,2.73,0,0,0-2.58,1.78,5.25,5.25,0,0,1,3.84,3.37,2.66,2.66,0,0,0,1-.86,1.48,1.48,0,0,1,.35-2.48A2.76,2.76,0,0,0,49.51,26.5Z"/><path class="cls-9" d="M52.11,28.31a1.48,1.48,0,0,0-.35,2.48,2.65,2.65,0,0,0,.5-1.57A2.76,2.76,0,0,0,52.11,28.31Z"/><path class="cls-10" d="M32,46.45a7,7,0,0,0-1.57,3.29,2.24,2.24,0,0,0,1.85-2.21A2.2,2.2,0,0,0,32,46.45Z"/><path class="cls-7" d="M45.81,28.17a5.26,5.26,0,0,0-3.57,1.38l.39.48,6.11,7.67a5.16,5.16,0,0,0,2.33-4.32,5,5,0,0,0-.3-1.73,2.76,2.76,0,0,1-4-2.43,2.7,2.7,0,0,1,.17-.94A5.91,5.91,0,0,0,45.81,28.17Z"/><path class="cls-11" d="M46.93,28.28a2.7,2.7,0,0,0-.17.94,2.76,2.76,0,0,0,4,2.43A5.25,5.25,0,0,0,46.93,28.28Z"/><path class="cls-12" d="M6.11,32.23a6.2,6.2,0,0,0-1.74.25A2,2,0,0,1,2.45,35.2a2,2,0,0,1-1.29-.46A6,6,0,0,0,0,38.28a6.08,6.08,0,0,0,6.11,6.06h.25c0-.34,0-.68,0-1v-11Z"/><path class="cls-13" d="M4.37,32.48a6.13,6.13,0,0,0-3.21,2.26,2,2,0,0,0,3.33-1.56A2,2,0,0,0,4.37,32.48Z"/><path class="cls-7" d="M39.37.19l-.48.1h0l-.24.06h0l0,0h0l-.09,0h0l-.07,0h-.06l-.07,0-.07,0-.06,0L38,.56l-.07,0A7.8,7.8,0,0,0,35.6,1.94L35.55,2,35.49,2l-.05,0h.1a6.77,6.77,0,0,1,3.87,1.2c.08-.16.17-.32.26-.47A6.54,6.54,0,0,1,39.4.93a6.28,6.28,0,0,1,0-.75Z"/><path class="cls-14" d="M49.81,6.62a6.37,6.37,0,0,1-1.17.58,8.36,8.36,0,0,1-2.43,3.18,6.72,6.72,0,0,1,3.12,1.29h0l0,0c0-.1.09-.2.13-.29v-.05h0c0-.11.09-.23.13-.34h0l0,0,.12-.38h0v-.14h0v0h0l0-.09h0v-.14h0l0-.13h0V9.78h0v0h0V9.63h0v0h0V9.28h0V9.19h0v0h0V8.9a2.44,2.44,0,0,0,0-.27V8.44h0V8.32h0V8.07h0V8h0V8h0v0h0V7.74a.78.78,0,0,0,0-.16V7.5h0v0h0V7.38h0V7.32h0c0-.12,0-.23-.07-.35h0a1.89,1.89,0,0,0,0-.23h0l0-.09Z"/><path class="cls-15" d="M41.69,6a6.62,6.62,0,0,1,.64,2.85v.23a6.56,6.56,0,0,1-.43,2.12,6.65,6.65,0,0,1,2.27-.78,6.23,6.23,0,0,1,1.06-.09,7.79,7.79,0,0,1,1,.07,8.29,8.29,0,0,0,2.43-3.16,6.83,6.83,0,0,1-2.45.44A6.81,6.81,0,0,1,41.69,6Zm-2-3.15h0c-.09.15-.18.31-.26.47a7.31,7.31,0,0,1,.62.48A7.74,7.74,0,0,1,39.67,2.82Z"/><path class="cls-7" d="M32.63,5.69l-3.55,5.23a6.53,6.53,0,0,0,.58,1.26q.42-.06.87-.09a9,9,0,0,1,3.58-3.21A8.27,8.27,0,0,1,32.63,5.69Z"/><path class="cls-15" d="M35.54,2.09h-.1l0,0h0l-.15.14h0l0,0h0l0,0h0l0,0h0l0,0h0l0,0h0l0,0h0l0,0h0l0,0h0l0,0h0l0,0h0l0,0h0l-.11.12h0l0,0h0l0,0h0l0,0h0l0,0h0l-.08.09,0,0h0l0,0h0l0,0h0l0,0h0l0,0h0l0,0h0l0,0h0l0,0h0l-.16.2h0l0,0h0l0,0h0l0,0h0l0,0h0l0,0h0l0,0h0l0,0h0l0,0h0l0,0h0l0,0h0l0,0h0l0,0h0l0,0h0l0,0h0l0,0h0l0,0h0l0,0h0l0,0h0l0,0,0,0,0,0,0,0-1,1.54a8.27,8.27,0,0,0,1.48,3.19A8.5,8.5,0,0,0,38.67,12a11.4,11.4,0,0,1-.55-3.47c0-.17,0-.35,0-.52a11.06,11.06,0,0,1,1.27-4.68A6.77,6.77,0,0,0,35.54,2.09Z"/><path class="cls-15" d="M39.41,3.29A11.06,11.06,0,0,0,38.14,8c0,.17,0,.35,0,.52A11.4,11.4,0,0,0,38.67,12a8.89,8.89,0,0,0,1.8.28,6.51,6.51,0,0,1,1.43-1.07,6.56,6.56,0,0,0,.43-2.12V8.82A6.62,6.62,0,0,0,41.69,6,6.91,6.91,0,0,1,40,3.77,7.31,7.31,0,0,0,39.41,3.29Z"/><path class="cls-16" d="M40.79.08H39.44a4.92,4.92,0,0,0,0,.67h0v0h0V1a6.48,6.48,0,0,0,.27,1.83A11.33,11.33,0,0,1,41.86.14h0L41.5.1h-.71Z"/><path class="cls-17" d="M49.24,5.13a8,8,0,0,1-.6,2.07,6.37,6.37,0,0,0,1.17-.58v0h0l0-.09h0v0l0-.09h0v-.1h0l0-.09h0c-.06-.19-.14-.38-.21-.56v0h0C49.39,5.43,49.32,5.28,49.24,5.13Z"/><path class="cls-18" d="M41.86.14a11.33,11.33,0,0,0-2.19,2.68,7.74,7.74,0,0,0,.36,1A6.8,6.8,0,0,1,41.7,6a6.77,6.77,0,0,0,4.49,1.68h0a6.66,6.66,0,0,0,2.41-.45,8,8,0,0,0,.6-2.07l-.1-.19v0l0-.06,0,0-.27-.43,0,0h0l0-.07h0l0,0h0l-.05-.07h0l0-.08h0l0-.06h0l0-.06h0l0,0,0,0-.06-.08h0l0,0,0-.06,0,0,0,0,0,0h0l0,0-.06-.07-.05,0,0,0,0,0-.05-.06h0l0,0h0l-.11-.12-.11-.11,0,0h0l-.05,0h0l0,0,0,0v0h0l-.13-.12,0,0,0,0h0l-.08-.07-.14-.12h0L47,2.39l0,0,0,0-.06-.05,0,0h0l-.15-.12h0L46.51,2,46.44,2h0l0,0,0,0-.08-.06L46.2,1.8h0l-.08-.06-.07,0h0l0,0-.08,0a2.82,2.82,0,0,0-.29-.18h0l-.14-.08h0l0,0-.05,0-.07,0h0c-.21-.12-.42-.22-.63-.32h0L44.5.84h0l-.06,0-.07,0h0c-.11,0-.22-.09-.33-.12h0L43.9.6h0l-.06,0L43.47.46h0l-.16,0h-.1L42.85.3h0l-.07,0C42.5.23,42.23.18,42,.15h-.1Z"/><path class="cls-19" d="M40,3.77A6.8,6.8,0,0,0,41.7,6,6.8,6.8,0,0,0,40,3.77Z"/><path class="cls-20" d="M38.91,25.52a8.68,8.68,0,0,0-1.6,5v.07a8.94,8.94,0,0,0,.1,1.27,15.71,15.71,0,0,1,4.21-1.65,4.5,4.5,0,0,1,.62-.69l-2.71-3.4.56-.82L41.73,23A8.9,8.9,0,0,0,38.91,25.52Z"/><path class="cls-21" d="M42.24,29.55a4.5,4.5,0,0,0-.62.69c.33-.08.67-.15,1-.21Z"/><path class="cls-22" d="M29.87,30.37a8,8,0,0,0-3.38.75A9.6,9.6,0,0,1,24.74,35c.2.31.4.63.58,1h0L30,41.74A15.54,15.54,0,0,1,35.76,33,8,8,0,0,0,29.87,30.37Z"/><path class="cls-6" d="M33.39,45.24l-.44.2.07.08.37-.28Zm13.72,6.65.19-.1h0l.07,0,0,0,0,0h0l.06,0,.08,0h0l.07,0h0l0,0h0l.06,0,.07,0h0l.07,0,0,0,.06,0,0,0,0,0,.06,0h0l.07-.05h0l.18-.13h0l.07-.06h0l.06,0,0,0,0,0,0-.05h0l.07,0h0l.06,0,.21-.17a7.59,7.59,0,0,0,2.93-6,8.55,8.55,0,0,0-2.14-5.4l-.35-.44a9,9,0,0,1-3.35.64,8.86,8.86,0,0,1-8.78-7.46h0A18,18,0,0,0,35.76,33a7.79,7.79,0,0,1-1.41,11.71,7.14,7.14,0,0,1,3.09-.7,7,7,0,0,1,7.09,7,6.76,6.76,0,0,1-.26,1.87,10.23,10.23,0,0,0,1.35-.33l.08,0,.24-.08.07,0h0l.09,0h0l.05,0,0,0h0l.08,0h0l.08,0h0l0,0,.05,0,0,0h0l.05,0,.07,0h0l.06,0,0,0,.08,0h0L47,52h0l.07,0Z"/><path class="cls-9" d="M37.44,44a7.14,7.14,0,0,0-3.09.7,8.3,8.3,0,0,1-1,.56l-.37.28,3.75,4.66A7.06,7.06,0,0,0,42.62,53h1.14l.15,0H44l.25,0A6.76,6.76,0,0,0,44.53,51,7,7,0,0,0,37.44,44Z"/><path class="cls-23" d="M41.62,30.24a15.71,15.71,0,0,0-4.21,1.65,8.86,8.86,0,0,0,8.78,7.46,9,9,0,0,0,3.35-.64l-.39-.5-.41-.51a5.27,5.27,0,0,1-8.19-4.32A5.13,5.13,0,0,1,41.62,30.24Z"/><path class="cls-24" d="M42.63,30c-.34.06-.68.13-1,.21a5.13,5.13,0,0,0-1.07,3.14,5.27,5.27,0,0,0,8.19,4.32l-2.8-3.51Z"/><path class="cls-25" d="M35.76,33A15.54,15.54,0,0,0,30,41.74l1.5,1.87L33,45.44l.44-.2a7.07,7.07,0,0,1,1-.56A7.79,7.79,0,0,0,35.76,33Z"/><path class="cls-26" d="M34.35,44.68a7.07,7.07,0,0,0-1,.56A8.3,8.3,0,0,0,34.35,44.68Z"/><path class="cls-3" d="M22,37.46a9.87,9.87,0,0,1-9.8.19q0,.32,0,.63a5.73,5.73,0,0,1-.28,1.82A10.29,10.29,0,0,1,17.07,49a10.1,10.1,0,0,1-.78,3.93,7.71,7.71,0,0,0,1-.18h0a8.3,8.3,0,0,0,2-.74h0l.07,0,.37-.21h0l.07,0,.15-.09.06,0h0l.07-.05h0l.08,0h0l.06-.05h0c.2-.14.4-.28.59-.44h0l.06-.05h0l.08-.06h0l.42-.38a9,9,0,0,0,2.69-6.85h0A7.78,7.78,0,0,1,22,38.22a6.34,6.34,0,0,1,0-.76ZM6.32,27.91h0v4.33a5.76,5.76,0,0,1,1.39.2,9.47,9.47,0,0,1-.57-3.26A9.23,9.23,0,0,1,7.22,28C6.91,28,6.62,28,6.32,27.91Z"/><path class="cls-27" d="M6.32,32.24v6.43h.32a10.43,10.43,0,0,1,5.3,1.43,5.73,5.73,0,0,0,.28-1.82q0-.31,0-.63a9.76,9.76,0,0,1-4.48-5.21A5.76,5.76,0,0,0,6.32,32.24Z"/><path class="cls-28" d="M24.11,35.73A9.85,9.85,0,0,1,22,37.46a6.34,6.34,0,0,0,0,.76,7.78,7.78,0,0,0,2.16,5.38V35.73Zm.53-.62.68.84c-.18-.33-.38-.65-.58-1h0Z"/><path class="cls-29" d="M22.12,21.45a17,17,0,0,1-9,6,17,17,0,0,1,10.5,6,8,8,0,0,1,2.9-2.31,9.53,9.53,0,0,0,.2-1.94c0-.2,0-.41,0-.61A8.77,8.77,0,0,1,22.12,21.45Z"/><path class="cls-30" d="M26.49,31.12a8,8,0,0,0-2.9,2.31A17.4,17.4,0,0,1,24.74,35,9.6,9.6,0,0,0,26.49,31.12Z"/><path class="cls-31" d="M13.09,27.47a16.84,16.84,0,0,1-4.46.59q-.72,0-1.41-.06a9.81,9.81,0,0,0-.08,1.09v.08h0v.06a9.7,9.7,0,0,0,.57,3.2,6.07,6.07,0,0,1,4.48,5.21,9.87,9.87,0,0,0,9.8-.19,7.76,7.76,0,0,1,1.6-4A17,17,0,0,0,13.09,27.47Z"/><path class="cls-32" d="M7.71,32.44a9.76,9.76,0,0,0,4.48,5.21A6.07,6.07,0,0,0,7.71,32.44Z"/><path class="cls-33" d="M23.59,33.43a7.76,7.76,0,0,0-1.6,4,9.85,9.85,0,0,0,2.12-1.73V34.44l.53.67.1-.12A17.4,17.4,0,0,0,23.59,33.43Z"/><path class="cls-34" d="M11.91,4a10.29,10.29,0,0,1-5.44,3.6v0h0v0h0V8h0V8.1h0v0h0v.05l0,.14h0v.06l0,.15v0h0v.11h0v.12h0V9h0v.24h0v.12h0v4.41a3.41,3.41,0,0,1,0,6.42v7.6q.48-.12,1-.21A9.81,9.81,0,0,1,22.1,21v-.1a8.65,8.65,0,0,1,2-5.57V8.85h0V8.73h0V8.53h0V8.3c0-.2,0-.4,0-.59h0A11,11,0,0,0,23.7,6a8.37,8.37,0,0,1-4.93,1.6A8.32,8.32,0,0,1,11.91,4Z"/><path class="cls-35" d="M6.32,13.76v6.42a3.41,3.41,0,0,0,0-6.42Z"/><path class="cls-36" d="M10.68,1.24a9.71,9.71,0,0,0-.93.65l0,0,0,0-.36.32,0,0,0,0,0,0h0l-.05.05,0,0h0l0,0L9,2.57H9l0,0-.05.06h0l-.08.08-.06.07,0,0,0,0h0l-.16.18h0v0l-.05.05h0l-.05.07,0,.06h0l-.05.07v0l0,.05,0,0h0l-.06.07v0h0l0,.07L8,3.76l0,.05v0l-.05.07h0l0,.06,0,.06h0l0,.07,0,.07h0l0,.07v0h0l0,.09h0v0l0,.08h0l0,.07h0l0,.06h0l-.08.14,0,.08,0,.05v0l0,0,0,0,0,.07h0l0,.07v0l0,.06,0,0,0,0,0,.07h0A1.54,1.54,0,0,0,7,5.58H7v0l0,.07,0,.09H7l0,.07L6.87,6l0,.08v.08l0,0v0c0,.11-.07.22-.1.34v.1c-.07.3-.14.61-.19.92A10.29,10.29,0,0,0,11.91,4,8.1,8.1,0,0,1,10.68,1.24Z"/><path class="cls-37" d="M15.42,0H15c-.32,0-.63,0-.94.08h0l-.1,0H13.8A10.13,10.13,0,0,1,11.91,4a8.32,8.32,0,0,0,6.86,3.59A8.37,8.37,0,0,0,23.7,6,8.16,8.16,0,0,0,23,4.25c0-.08-.09-.15-.13-.22V4c-.09-.15-.19-.29-.29-.43h0a3.55,3.55,0,0,0-.23-.31l-.05,0,0,0-.06-.07h0l0,0h0L22.05,3l0,0h0l0,0,0-.05h0l0,0,0,0-.05,0,0-.05h0l0,0h0l-.08-.08h0l-.05,0,0,0,0,0-.05,0A8.73,8.73,0,0,0,15.42,0Z"/><path class="cls-38" d="M13.74.13h-.06Q13.31.2,13,.29h0a8,8,0,0,0-2.27,1A8.1,8.1,0,0,0,11.91,4,10.13,10.13,0,0,0,13.8.12Z"/><path class="cls-39" d="M7.28,27.57q-.48.09-1,.21v.13c.3,0,.59.07.9.09A3.18,3.18,0,0,1,7.28,27.57Z"/><path class="cls-40" d="M16.92,19.51a9.76,9.76,0,0,0-9.64,8.06,17.18,17.18,0,0,1,5.81-.1,17,17,0,0,0,9-6c0-.15,0-.31,0-.47A9.81,9.81,0,0,0,16.92,19.51Z"/><path class="cls-41" d="M10.46,27.27a17.49,17.49,0,0,0-3.18.3,3.18,3.18,0,0,0-.06.43c.41,0,.83.06,1.25.06H8.7a16.73,16.73,0,0,0,4.39-.59A17.5,17.5,0,0,0,10.46,27.27Z"/><path class="cls-42" d="M34.11,8.88a9,9,0,0,0-3.58,3.21H31a8.89,8.89,0,0,1,6.77,3.1,7,7,0,0,0,1.11-.5,6.37,6.37,0,0,1,.51-1,11.57,11.57,0,0,1-.7-1.67A8.5,8.5,0,0,1,34.11,8.88Z"/><path class="cls-43" d="M38.67,12a11.57,11.57,0,0,0,.7,1.67,6.42,6.42,0,0,1,1.1-1.39A8.89,8.89,0,0,1,38.67,12Z"/><path class="cls-44" d="M39.66,14.16a6.09,6.09,0,0,1-.8.52,6.86,6.86,0,0,0-.37,1.5,8.69,8.69,0,0,1,1.38,4.7,2.72,2.72,0,0,1,0,.28,6.81,6.81,0,0,0,1.94,1.68l2.85-4.14A11.42,11.42,0,0,1,39.66,14.16Z"/><path class="cls-45" d="M45,11.22a8.39,8.39,0,0,1-3.56,1,6.64,6.64,0,0,1-1.73,1.93,11.42,11.42,0,0,0,5,4.54l.12-.17,2.08-3A8.65,8.65,0,0,0,45,11.22Z"/><path class="cls-46" d="M44.17,10.39a6.65,6.65,0,0,0-2.27.78,6.08,6.08,0,0,1-.51,1.06,8.29,8.29,0,0,0,4.82-1.86,7.79,7.79,0,0,0-1-.07A6.23,6.23,0,0,0,44.17,10.39Z"/><path class="cls-47" d="M39.37,13.63a6.37,6.37,0,0,0-.51,1,6.09,6.09,0,0,0,.8-.52C39.56,14,39.46,13.81,39.37,13.63Z"/><path class="cls-48" d="M41.39,12.23l-.5,0h-.42a6.42,6.42,0,0,0-1.1,1.39c.09.18.19.35.29.53A6.64,6.64,0,0,0,41.39,12.23Z"/><path class="cls-49" d="M41.91,11.17a6.34,6.34,0,0,0-1.44,1.07h.42l.5,0A6.94,6.94,0,0,0,41.91,11.17Z"/><path class="cls-50" d="M29.66,12.18a9,9,0,0,0-1.73.44l-3.82,5.62v-.1a16.38,16.38,0,0,1-1.76,3,9.65,9.65,0,0,1,4.32,7.43,9,9,0,0,0,4.24,1.11H31a8.89,8.89,0,0,0,7.53-4.13,8.69,8.69,0,0,0,1.35-4.39A6.7,6.7,0,0,1,38.44,17a6.2,6.2,0,0,1,.05-.86,8,8,0,0,0-.74-1,7.06,7.06,0,0,1-2.21.36,6.83,6.83,0,0,1-5.44-2.69A7,7,0,0,1,29.66,12.18Z"/><path class="cls-51" d="M30.53,12.09q-.45,0-.87.09a7,7,0,0,0,.44.67A8.2,8.2,0,0,1,30.53,12.09Z"/><path class="cls-52" d="M22.35,21.14l-.23.31a8.77,8.77,0,0,0,4.55,7.12A9.65,9.65,0,0,0,22.35,21.14Z"/><path class="cls-53" d="M24.11,15.31a8.65,8.65,0,0,0-2,5.57V21l.25.16a16.38,16.38,0,0,0,1.76-3Z"/><path class="cls-54" d="M22.1,21c0,.16,0,.32,0,.47l.23-.31Z"/><path class="cls-55" d="M31,12.08h-.45a8.2,8.2,0,0,0-.43.76,6.83,6.83,0,0,0,5.44,2.69,7.06,7.06,0,0,0,2.21-.36A8.89,8.89,0,0,0,31,12.08Z"/><path class="cls-56" d="M38.49,16.18a5.89,5.89,0,0,0-.05.85,6.7,6.7,0,0,0,1.42,4.13,2.72,2.72,0,0,0,0-.28A8.69,8.69,0,0,0,38.49,16.18Z"/><path class="cls-27" d="M11.94,40.1a6.09,6.09,0,0,1-5.58,4.23v.11h0v.25h0v.13c0,.12,0,.23,0,.35v0h0c0,.11,0,.23,0,.35v.13l0,.17c0,.09,0,.18.05.26h0v0l0,.2h0v.06l0,0,0,.09v.06a1.09,1.09,0,0,0,0,.17v0h0v0c.06.21.13.42.2.62H7v0l0,.09h0l0,.1,0,.08v0l0,.09v0l0,.05,0,0,0,.09h0v0l0,.07,0,.06,0,.08.07.13,0,.06,0,.07h0l0,0,0,.07a1.09,1.09,0,0,0,.08.15v0h0l0,.08h0l0,.09h0l0,.07v0l0,.06h0l.15.23.05.07,0,0,.09.12h0l.05.07,0,.06,0,0h0l0,.05.05.06.05.06h0l0,0,0,.06h0l.06.08A8,8,0,0,0,15.1,53h.51c.23,0,.46,0,.68-.06A10.1,10.1,0,0,0,17.07,49,10.29,10.29,0,0,0,11.94,40.1Z"/><path class="cls-57" d="M6.64,38.67H6.32v4.66h0v0h0v0h0c0,.26,0,.52,0,.77h0v.11h0a6.09,6.09,0,0,0,5.58-4.23A10.43,10.43,0,0,0,6.64,38.67Z"/><path class="cls-58" d="M46.21,10.38a9.2,9.2,0,0,1-1.26.84,8.65,8.65,0,0,1,1.9,4.28l1.62-2.35.09-.13h0l0,0a9,9,0,0,0,.6-1h0l.12-.24v0h0v0h0A6.72,6.72,0,0,0,46.21,10.38Z"/><path class="cls-59" d="M34.74,33.81h-.23A12.31,12.31,0,0,1,26.69,31,8,8,0,0,1,35.76,33Q35.24,33.38,34.74,33.81Z"/><path class="cls-60" d="M36.33,33.68a11.89,11.89,0,0,1-1.59.13q.49-.44,1-.84C36,33.2,36.15,33.43,36.33,33.68Z"/><path class="cls-61" d="M37.78,33.38a14.34,14.34,0,0,1-1.45.3c-.18-.25-.37-.48-.57-.71a18,18,0,0,1,1.65-1.08h0A8.32,8.32,0,0,0,37.78,33.38Z"/><path class="cls-62" d="M40.69,32.16a12.7,12.7,0,0,1-2.91,1.22,8.32,8.32,0,0,1-.37-1.49,15.71,15.71,0,0,1,4.21-1.65A5.12,5.12,0,0,0,40.69,32.16Z"/><path class="cls-63" d="M43,30.46a12.3,12.3,0,0,1-2.28,1.7,5.12,5.12,0,0,1,.93-1.92c.33-.08.67-.15,1-.21Z"/><path class="cls-64" d="M26.54,30.9a12.09,12.09,0,0,1-4.27-8.29,8.82,8.82,0,0,0,4.4,6c0,.2,0,.41,0,.61A9.74,9.74,0,0,1,26.54,30.9Z"/><path class="cls-65" d="M34.11,8.85A8,8,0,0,0,38.67,12a13.59,13.59,0,0,1-.48-2.28A14,14,0,0,0,34.11,8.85Z"/></g></g></svg>