<svg xmlns="http://www.w3.org/2000/svg" viewBox="0 0 18 14"><defs><style>.cls-1{fill:#fff;}</style></defs><title>mail</title><g id="Layer_2" data-name="Layer 2"><g id="Layer_1-2" data-name="Layer 1"><g id="email"><path class="cls-1" d="M16,14H2a2,2,0,0,1-2-2.06V.41A.4.4,0,0,1,.39,0,.4.4,0,0,1,.78.41V11.94A1.22,1.22,0,0,0,2,13.18H16a1.22,1.22,0,0,0,1.18-1.24V.41A.4.4,0,0,1,17.61,0,.4.4,0,0,1,18,.41V11.94A2,2,0,0,1,16,14Z"/><path class="cls-1" d="M9,7.84a1.87,1.87,0,0,1-1.14-.39L.14.73A.43.43,0,0,1,0,.27.41.41,0,0,1,.39,0H17.61A.41.41,0,0,1,18,.27a.43.43,0,0,1-.12.46L10.17,7.44A2,2,0,0,1,9,7.84ZM1.48.82l6.85,6a1.13,1.13,0,0,0,1.36,0l6.83-6Z"/><path class="cls-1" d="M17.61.82H.39A.4.4,0,0,1,0,.41.4.4,0,0,1,.39,0H17.61A.4.4,0,0,1,18,.41.4.4,0,0,1,17.61.82Z"/></g></g></g></svg>