<svg xmlns="http://www.w3.org/2000/svg" viewBox="0 0 20 16"><defs><style>.cls-1{fill:#ce6fab;}</style></defs><title>Menu_6_2</title><g id="Layer_2" data-name="Layer 2"><g id="Layer_1-2" data-name="Layer 1"><path class="cls-1" d="M19.5,2.67H6.28a.51.51,0,0,1-.5-.5.5.5,0,0,1,.5-.5H19.5a.5.5,0,0,1,.5.5A.5.5,0,0,1,19.5,2.67Z"/><path class="cls-1" d="M2.15,4.33A2.17,2.17,0,1,1,4.3,2.17,2.16,2.16,0,0,1,2.15,4.33ZM2.15,1A1.17,1.17,0,1,0,3.3,2.17,1.16,1.16,0,0,0,2.15,1Z"/><path class="cls-1" d="M19.5,8.5H6.28a.5.5,0,0,1,0-1H19.5a.5.5,0,0,1,0,1Z"/><path class="cls-1" d="M2.15,10.17A2.17,2.17,0,1,1,4.3,8,2.16,2.16,0,0,1,2.15,10.17Zm0-3.34a1.17,1.17,0,0,0,0,2.34,1.17,1.17,0,0,0,0-2.34Z"/><path class="cls-1" d="M19.5,14.33H6.28a.5.5,0,0,1-.5-.5.51.51,0,0,1,.5-.5H19.5a.5.5,0,0,1,.5.5A.5.5,0,0,1,19.5,14.33Z"/><path class="cls-1" d="M2.15,16A2.17,2.17,0,1,1,4.3,13.83,2.16,2.16,0,0,1,2.15,16Zm0-3.33A1.17,1.17,0,1,0,3.3,13.83,1.16,1.16,0,0,0,2.15,12.67Z"/></g></g></svg>