<svg xmlns="http://www.w3.org/2000/svg" viewBox="0 0 21 19"><defs><style>.cls-1{fill:#616161;}</style></defs><title>menu_1</title><g id="Layer_2" data-name="Layer 2"><g id="Layer_1-2" data-name="Layer 1"><path class="cls-1" d="M21,8.07H17.36l0,0L12.22,3a1.87,1.87,0,0,0,.3-1,2,2,0,0,0-4,0,1.87,1.87,0,0,0,.3,1L3.61,8.05l0,0H0v2.84H1.56l.49,5.81A2.54,2.54,0,0,0,4.57,19H16.43A2.54,2.54,0,0,0,19,16.72l.49-5.81H21ZM10.5.85A1.13,1.13,0,1,1,9.35,2,1.13,1.13,0,0,1,10.5.85ZM9.37,3.61a2,2,0,0,0,2.26,0l4.56,4.46H4.81Zm8.72,13a1.68,1.68,0,0,1-1.67,1.5H4.57a1.69,1.69,0,0,1-1.66-1.5l-.48-5.74H18.57Zm2-6.59H.87V8.93H20.13Z"/></g></g></svg>