<svg xmlns="http://www.w3.org/2000/svg" viewBox="0 0 25 21"><defs><style>.cls-1{fill:#616161;}</style></defs><title>menu_4</title><g id="Layer_2" data-name="Layer 2"><g id="Layer_1-2" data-name="Layer 1"><path class="cls-1" d="M10.43,21A10.5,10.5,0,1,1,20.85,10.5,10.48,10.48,0,0,1,10.43,21Zm0-20.16A9.66,9.66,0,1,0,20,10.5,9.64,9.64,0,0,0,10.43.84Z"/><path class="cls-1" d="M10.43,12.18A1.68,1.68,0,1,1,12.1,10.5,1.68,1.68,0,0,1,10.43,12.18Zm0-2.52a.84.84,0,0,0,0,1.68.84.84,0,0,0,0-1.68Z"/><path class="cls-1" d="M16.06,13a2.52,2.52,0,1,1,2.5-2.52A2.52,2.52,0,0,1,16.06,13Zm0-4.2a1.68,1.68,0,1,0,1.67,1.68A1.68,1.68,0,0,0,16.06,8.82Z"/><path class="cls-1" d="M4.8,13A2.52,2.52,0,1,1,7.3,10.5,2.52,2.52,0,0,1,4.8,13Zm0-4.2A1.68,1.68,0,1,0,6.46,10.5,1.68,1.68,0,0,0,4.8,8.82Z"/><path class="cls-1" d="M10.43,7.35a2.52,2.52,0,1,1,2.5-2.52A2.52,2.52,0,0,1,10.43,7.35Zm0-4.2A1.68,1.68,0,1,0,12.1,4.83,1.68,1.68,0,0,0,10.43,3.15Z"/><path class="cls-1" d="M10.43,18.69a2.52,2.52,0,0,1-2.51-2.52,2.53,2.53,0,0,1,2.51-2.52,2.52,2.52,0,0,1,0,5Zm0-4.2A1.62,1.62,0,0,0,9.25,15a1.67,1.67,0,1,0,1.18-.49Z"/><path class="cls-1" d="M17.51,18.05a.42.42,0,0,1-.3-.12.44.44,0,0,1,0-.6h0a5.4,5.4,0,0,1,7.67,0,.43.43,0,0,1,0,.6.42.42,0,0,1-.59,0,4.56,4.56,0,0,0-6.47,0l0,0h0A.42.42,0,0,1,17.51,18.05Z"/></g></g></svg>