<svg xmlns="http://www.w3.org/2000/svg" viewBox="0 0 12 22"><defs><style>.cls-1{fill:#e8a83a;}</style></defs><title>menu_5_2</title><g id="Layer_2" data-name="Layer 2"><g id="Layer_1-2" data-name="Layer 1"><path class="cls-1" d="M11.9,9.36a4.43,4.43,0,0,0,.1-.9c0-.13,0-.25,0-.37V8a2.51,2.51,0,0,0,0-.27.29.29,0,0,0,0-.09c0-.12-.05-.23-.08-.35s0,0,0,0L11.72,7l-.05-.11a2.14,2.14,0,0,0-.1-.22l-.05-.09a2.69,2.69,0,0,0-.16-.29l0-.07L11.16,6a.86.86,0,0,0-.07-.1l-.15-.17a.6.6,0,0,0-.08-.08,2.39,2.39,0,0,0-.23-.22l-.08-.07-.18-.14-.11-.07L10.08,5,10,5l-.26-.13A3.86,3.86,0,0,0,9.81,4,3.9,3.9,0,0,0,6,0,3.9,3.9,0,0,0,2.19,4a3.86,3.86,0,0,0,.09.84,4,4,0,0,0,.16,7.35L6,22l3.56-9.83A3.94,3.94,0,0,0,11.9,9.36Zm-4,2.21H7.82l-.21,0-.08,0-.19-.05-.1,0-.16-.07-.1,0-.15-.07-.11-.06L6.6,11.1,6.49,11l-.11-.08-.11-.09A3.18,3.18,0,0,1,5.2,8.46a3.06,3.06,0,0,1,3-3.12,2.8,2.8,0,0,1,.88.14h0l.25.1.07,0,.17.09.08,0,.16.1.07,0,.17.14,0,0a1.8,1.8,0,0,1,.2.19h0l.18.2,0,0,.13.19,0,0,.14.24h0a2.72,2.72,0,0,1,.22.56s0,0,0,0a2,2,0,0,1,.06.26.06.06,0,0,1,0,0,2.34,2.34,0,0,1,0,.26.06.06,0,0,0,0,0c0,.11,0,.21,0,.31a3.11,3.11,0,0,1-2.12,3,3.16,3.16,0,0,1-.87.13H7.9ZM.82,8.46a3.1,3.1,0,0,1,2.08-3l.39-.13L3.16,5A3.12,3.12,0,0,1,3,4,3.07,3.07,0,0,1,6,.85,3.07,3.07,0,0,1,9,4a2.78,2.78,0,0,1-.06.58,3.57,3.57,0,0,0-.74-.08,3.9,3.9,0,0,0-3.81,4,4,4,0,0,0,1,2.66,2.91,2.91,0,0,1-1.56.46A3.06,3.06,0,0,1,.82,8.46ZM6,19.58,3.41,12.41a2.6,2.6,0,0,0,.4,0A3.65,3.65,0,0,0,6,11.71H6l.16.11.12.07.16.09.14.08.15.07.29.11.12,0,.22.06.13,0,.23,0,.11,0,.32,0h0a2.83,2.83,0,0,0,.41,0Z"/></g></g></svg>