<svg xmlns="http://www.w3.org/2000/svg" viewBox="0 0 45 45"><defs><style>.cls-1{fill:#00a84f;}.cls-2{fill:#b4d983;}.cls-3{fill:#fff;}</style></defs><title>menu</title><g id="Layer_2" data-name="Layer 2"><g id="Layer_1-2" data-name="Layer 1"><path class="cls-1" d="M28.91.93C27.83,14.39,15.53,25,.5,25H.14A22.5,22.5,0,1,0,28.91.93Z"/><path class="cls-2" d="M28.91.93A22.51,22.51,0,0,0,0,22.5,22.8,22.8,0,0,0,.14,25H.5C15.53,25,27.83,14.39,28.91.93Z"/><polygon class="cls-3" points="30.28 16.14 28.86 14.72 22.5 21.09 16.14 14.72 14.72 16.14 21.09 22.5 14.72 28.86 16.14 30.28 22.5 23.91 28.86 30.28 30.28 28.86 23.91 22.5 30.28 16.14"/></g></g></svg>