<svg xmlns="http://www.w3.org/2000/svg" viewBox="0 0 45 12"><defs><style>.cls-1{fill:#dc4a38;}.cls-2{fill:#00a84f;}</style></defs><title>parking_2</title><g id="Layer_2" data-name="Layer 2"><g id="Layer_1-2" data-name="Layer 1"><path class="cls-1" d="M22.34,10h2.21v-1H22.34a.6.6,0,0,1-.45-.21.53.53,0,0,1-.12-.45l.16-1a2.53,2.53,0,0,1,2.18-2.08l1.46-.3a4.86,4.86,0,0,0,1.69-.71l2.41-1.6a5,5,0,0,1,2.77-.83h4.11a3.14,3.14,0,0,1,1.89.63l1.22.91a5.06,5.06,0,0,0,2,.88l1.85.37a.6.6,0,0,1,.5.59V8a1,1,0,0,1-1,1H42v1H43a2,2,0,0,0,2-2V5.15a1.64,1.64,0,0,0-1.31-1.6l-1.86-.37a3.84,3.84,0,0,1-1.57-.7L39,1.58A4.14,4.14,0,0,0,36.55.75H32.44a6,6,0,0,0-3.33,1l-2.4,1.59a3.68,3.68,0,0,1-1.34.56L24,4.2a3.52,3.52,0,0,0-3,2.91l-.17,1a1.58,1.58,0,0,0,.35,1.28A1.56,1.56,0,0,0,22.34,10Z"/><path class="cls-1" d="M40.45,12a2.56,2.56,0,1,0-2.52-2.56A2.55,2.55,0,0,0,40.45,12Zm0-4.09a1.54,1.54,0,1,1-1.51,1.53A1.53,1.53,0,0,1,40.45,7.91Z"/><path class="cls-1" d="M26.31,12a2.56,2.56,0,1,0-2.53-2.56A2.54,2.54,0,0,0,26.31,12Zm0-4.09a1.54,1.54,0,1,1-1.52,1.53A1.53,1.53,0,0,1,26.31,7.91Z"/><rect class="cls-1" x="28.03" y="8.93" width="10.24" height="1.02"/><path class="cls-2" d="M6.15.94A.74.74,0,0,0,6.42.56.47.47,0,0,0,6.28.14.47.47,0,0,0,5.85,0a.81.81,0,0,0-.38.26L0,5.63,5.47,11a.74.74,0,0,0,.38.26.45.45,0,0,0,.43-.13.46.46,0,0,0,.14-.42.78.78,0,0,0-.27-.38L1.83,6.07H12.5A.81.81,0,0,0,12.94,6a.46.46,0,0,0,0-.76.81.81,0,0,0-.44-.07H1.84Z"/></g></g></svg>