<svg xmlns="http://www.w3.org/2000/svg" viewBox="0 0 45 12"><defs><style>.cls-1{fill:#dc4a38;}.cls-2{fill:#00a84f;}</style></defs><title>parking_1</title><g id="Layer_2" data-name="Layer 2"><g id="Layer_1-2" data-name="Layer 1"><path class="cls-1" d="M22.66,10H20.45v-1h2.21a.6.6,0,0,0,.45-.21.53.53,0,0,0,.12-.45l-.16-1a2.53,2.53,0,0,0-2.18-2.08l-1.46-.3a4.86,4.86,0,0,1-1.69-.71L15.33,2.6a5,5,0,0,0-2.77-.83H8.45a3.14,3.14,0,0,0-1.89.63l-1.22.91a5.06,5.06,0,0,1-2,.88l-1.85.37a.6.6,0,0,0-.5.59V8a1,1,0,0,0,1,1H3v1H2A2,2,0,0,1,0,8V5.15a1.64,1.64,0,0,1,1.31-1.6l1.86-.37a3.84,3.84,0,0,0,1.57-.7L6,1.58A4.14,4.14,0,0,1,8.45.75h4.11a6,6,0,0,1,3.33,1l2.4,1.59a3.68,3.68,0,0,0,1.34.56l1.42.3a3.52,3.52,0,0,1,3,2.91l.17,1a1.58,1.58,0,0,1-.35,1.28A1.56,1.56,0,0,1,22.66,10Z"/><path class="cls-1" d="M4.55,12A2.56,2.56,0,1,1,7.07,9.44,2.55,2.55,0,0,1,4.55,12Zm0-4.09A1.54,1.54,0,1,0,6.06,9.44,1.53,1.53,0,0,0,4.55,7.91Z"/><path class="cls-1" d="M18.69,12a2.56,2.56,0,1,1,2.53-2.56A2.54,2.54,0,0,1,18.69,12Zm0-4.09a1.54,1.54,0,1,0,1.52,1.53A1.53,1.53,0,0,0,18.69,7.91Z"/><rect class="cls-1" x="6.73" y="8.93" width="10.24" height="1.02"/><path class="cls-2" d="M38.85.94a.74.74,0,0,1-.27-.38.47.47,0,0,1,.14-.42A.47.47,0,0,1,39.15,0a.81.81,0,0,1,.38.26L45,5.63,39.53,11a.74.74,0,0,1-.38.26.45.45,0,0,1-.43-.13.46.46,0,0,1-.14-.42.78.78,0,0,1,.27-.38l4.32-4.24H32.5A.81.81,0,0,1,32.06,6a.46.46,0,0,1,0-.76.81.81,0,0,1,.44-.07H43.16Z"/></g></g></svg>