<svg xmlns="http://www.w3.org/2000/svg" viewBox="0 0 33 37"><defs><style>.cls-1{fill:#ce6fab;}</style></defs><title>plan</title><g id="Layer_2" data-name="Layer 2"><g id="Layer_1-2" data-name="Layer 1"><g id="map"><path class="cls-1" d="M11.59,36.79a1.69,1.69,0,0,1-.87-.23L1,31.11a2.1,2.1,0,0,1-1-1.84V2.76A2.1,2.1,0,0,1,.91,1,1.75,1.75,0,0,1,2.57.83L11.3,4.51a.77.77,0,0,0,.63,0L20.64.3a1.75,1.75,0,0,1,1.45,0l9.7,4.09A2.05,2.05,0,0,1,33,6.28V34a2.09,2.09,0,0,1-1,1.82,1.76,1.76,0,0,1-1.76,0l-8.45-4.75a.73.73,0,0,0-.8,0L12.55,36.5A1.71,1.71,0,0,1,11.59,36.79ZM1.89,1.69a.78.78,0,0,0-.43.14A1.09,1.09,0,0,0,1,2.76V29.27a1.12,1.12,0,0,0,.51,1l9.7,5.45a.77.77,0,0,0,.8,0l8.44-5.43a1.75,1.75,0,0,1,1.83-.05l8.45,4.75a.76.76,0,0,0,.77,0,1.11,1.11,0,0,0,.5-1V6.28a1.06,1.06,0,0,0-.6-1l-9.7-4.1a.77.77,0,0,0-.63,0L12.36,5.4a1.79,1.79,0,0,1-1.45,0L2.19,1.75A.89.89,0,0,0,1.89,1.69Z"/><path class="cls-1" d="M11.63,37a.5.5,0,0,1-.5-.5V5.2a.5.5,0,0,1,1,0V36.5A.5.5,0,0,1,11.63,37Z"/><path class="cls-1" d="M21.37,30.74a.5.5,0,0,1-.5-.5V.5a.5.5,0,0,1,1,0V30.24A.5.5,0,0,1,21.37,30.74Z"/></g></g></g></svg>