<svg xmlns="http://www.w3.org/2000/svg" viewBox="0 0 14 13"><defs><style>.cls-1{opacity:0.5;}.cls-2{fill:#fff;}</style></defs><title>refresh_white</title><g id="Layer_2" data-name="Layer 2"><g id="Layer_1-2" data-name="Layer 1"><g class="cls-1"><path class="cls-2" d="M7.86,13a5.85,5.85,0,0,1-2.8-.71.63.63,0,0,1-.25-.83.57.57,0,0,1,.78-.27h0a4.64,4.64,0,0,0,2.27.57,5.12,5.12,0,0,0,5-5.26,5.13,5.13,0,0,0-5-5.27,5.13,5.13,0,0,0-5,5.27h0a.6.6,0,0,1-.59.62.6.6,0,0,1-.58-.62A6.33,6.33,0,0,1,7.86,0,6.33,6.33,0,0,1,14,6.5,6.33,6.33,0,0,1,7.86,13Z"/><path class="cls-2" d="M2.33,8a.6.6,0,0,1-.42-.18L.16,6a.66.66,0,0,1,0-.88.56.56,0,0,1,.81,0L2.33,6.53,3.66,5.11a.57.57,0,0,1,.83,0,.64.64,0,0,1,0,.86L2.74,7.84A.59.59,0,0,1,2.33,8Z"/></g></g></g></svg>