<svg xmlns="http://www.w3.org/2000/svg" viewBox="0 0 21 53"><defs><style>.cls-1{fill:#fff;fill-rule:evenodd;}</style></defs><title>scroll</title><g id="Layer_2" data-name="Layer 2"><g id="Layer_1-2" data-name="Layer 1"><path class="cls-1" d="M10.5,19a.8.8,0,0,1,.81.79v4.75a.81.81,0,0,1-1.62,0V19.76A.8.8,0,0,1,10.5,19Zm.81,31.34L14,47.7a.75.75,0,0,1,.57-.24.73.73,0,0,1,.56.24.75.75,0,0,1,0,1.11l-4,3.95a.8.8,0,0,1-1.14,0l-4-3.95a.75.75,0,0,1,0-1.11.73.73,0,0,1,.56-.24A.75.75,0,0,1,7,47.7l2.66,2.61V39.54a.81.81,0,0,1,1.62,0ZM7.55,43A.79.79,0,0,1,8,44a.81.81,0,0,1-1,.49,10.52,10.52,0,0,1-4.79-3.35A10.29,10.29,0,0,1,0,34.8v-15a10.39,10.39,0,0,1,2.79-7A10.93,10.93,0,0,1,10.5,9.47a10.91,10.91,0,0,1,7.73,3.29,10.33,10.33,0,0,1,2.77,7v15a10.18,10.18,0,0,1-2,6.09,10.51,10.51,0,0,1-5,3.61A.81.81,0,0,1,13,44a.79.79,0,0,1,.5-1,9.13,9.13,0,0,0,4.07-2.91,8.73,8.73,0,0,0,1.84-5.3v-15a8.73,8.73,0,0,0-2.43-6,9.21,9.21,0,0,0-6.45-2.71A9.32,9.32,0,0,0,3.82,14a8.76,8.76,0,0,0-2.2,6.24V34.8A8.74,8.74,0,0,0,3.4,40,9,9,0,0,0,7.55,43ZM8.88,1.58a1.62,1.62,0,0,1,3.24,0,1.62,1.62,0,0,1-3.24,0Zm0,4.75A1.62,1.62,0,1,1,10.5,7.91,1.61,1.61,0,0,1,8.88,6.33Z"/></g></g></svg>