<svg xmlns="http://www.w3.org/2000/svg" viewBox="0 0 22 23"><defs><style>.cls-1{fill:#7dc142;}</style></defs><title>shop_1</title><g id="Layer_2" data-name="Layer 2"><g id="Layer_1-2" data-name="Layer 1"><path class="cls-1" d="M21.23,17.11l-.45-.36A11.77,11.77,0,0,0,16,1.27,10.62,10.62,0,0,0,11,0a.35.35,0,0,0-.34.36A.35.35,0,0,0,11,.72,10.53,10.53,0,0,1,21.31,11.5a11.08,11.08,0,0,1-1.09,4.82l-2.77-2.18a1.18,1.18,0,0,0-1.58.12L14,16.2a.48.48,0,0,1-.55.13,12.76,12.76,0,0,1-4.3-2.95A13.35,13.35,0,0,1,6.35,8.87a.53.53,0,0,1,.12-.57l1.86-2A1.31,1.31,0,0,0,8.44,4.7L5.6.75A1.17,1.17,0,0,0,4.13.36L.7,2A1.26,1.26,0,0,0,0,3.37,24.62,24.62,0,0,0,6.19,16.45a21.78,21.78,0,0,0,8,5.31,10.21,10.21,0,0,1-13-6.94,11.37,11.37,0,0,1-.5-3.32.35.35,0,0,0-.34-.36.35.35,0,0,0-.34.36A11.24,11.24,0,0,0,11,23a10.51,10.51,0,0,0,4.2-.88,22.14,22.14,0,0,0,3.5.88h.19A1.21,1.21,0,0,0,20,22.28l1.6-3.6A1.31,1.31,0,0,0,21.23,17.11ZM21,18.35,19.37,22a.52.52,0,0,1-.54.31A21.88,21.88,0,0,1,7,16.29l0,0c-.11-.12-.23-.23-.34-.36l-.26-.27,0,0A23.7,23.7,0,0,1,.68,3.25.53.53,0,0,1,1,2.68L4.4,1A.51.51,0,0,1,5,1.17l2.84,4a.59.59,0,0,1,0,.72L6,7.79A1.27,1.27,0,0,0,5.7,9.13a14,14,0,0,0,3,4.75A13.25,13.25,0,0,0,13.2,17a1.13,1.13,0,0,0,1.28-.28l1.86-2a.51.51,0,0,1,.69,0l3.77,3A.58.58,0,0,1,21,18.35Z"/></g></g></svg>