<svg xmlns="http://www.w3.org/2000/svg" viewBox="0 0 27 17"><defs><style>.cls-1{fill:#7dc142;}</style></defs><title>shop_2</title><g id="Layer_2" data-name="Layer 2"><g id="Layer_1-2" data-name="Layer 1"><path class="cls-1" d="M3,2.6V13.94H.39a.41.41,0,0,0-.39.4A2.65,2.65,0,0,0,2.64,17H24.36A2.65,2.65,0,0,0,27,14.34a.41.41,0,0,0-.39-.4H24V2.6A2.58,2.58,0,0,0,21.45,0H5.55A2.62,2.62,0,0,0,3,2.6Zm20.33,0V13.94H8.79v.77H26.21a1.89,1.89,0,0,1-1.82,1.5H2.67a1.87,1.87,0,0,1-1.82-1.5h5.6v-.77H3.76V4H21.91V3.24H3.73V2.6A1.84,1.84,0,0,1,5.55.76H21.48A1.86,1.86,0,0,1,23.3,2.6Z"/></g></g></svg>