<svg xmlns="http://www.w3.org/2000/svg" viewBox="0 0 19 19"><title>socio_inst</title><g id="Layer_2" data-name="Layer 2"><g id="Layer_1-2" data-name="Layer 1"><g id="Layer_1-2-2" data-name="Layer 1-2"><path d="M9.5,4.57a4.9,4.9,0,1,0,4.94,4.9A4.9,4.9,0,0,0,9.5,4.57Zm0,8a3.14,3.14,0,1,1,3.14-3.13A3.13,3.13,0,0,1,9.5,12.6Z"/><circle cx="14.59" cy="4.45" r="1.11"/><path d="M17.48,1.58a5.43,5.43,0,0,0-4-1.57H5.56A5.24,5.24,0,0,0,0,4.92c0,.21,0,.43,0,.64v7.85a5.49,5.49,0,0,0,1.61,4.07A5.58,5.58,0,0,0,5.6,19h7.81a5.67,5.67,0,0,0,4-1.52,5.47,5.47,0,0,0,1.58-4V5.56A5.49,5.49,0,0,0,17.48,1.58Zm-.15,11.87a3.78,3.78,0,0,1-1.11,2.79,4,4,0,0,1-2.8,1H5.6a4,4,0,0,1-2.8-1,3.88,3.88,0,0,1-1-2.83V5.56a3.79,3.79,0,0,1,1-2.79,3.9,3.9,0,0,1,2.8-1h7.88a3.77,3.77,0,0,1,2.8,1,4,4,0,0,1,1,2.75v7.89Z"/></g></g></g></svg>