<svg xmlns="http://www.w3.org/2000/svg" viewBox="0 0 78 78"><defs><style>.cls-1{fill:#fff;}</style></defs><title>socio_big_inst</title><g id="Layer_2" data-name="Layer 2"><g id="Layer_1-2" data-name="Layer 1"><g id="Layer_1-2-2" data-name="Layer 1-2"><path class="cls-1" d="M39,18.75a20.22,20.22,0,1,0,.1,0Zm0,33A12.88,12.88,0,1,1,51.89,38.86,12.88,12.88,0,0,1,39,51.74Z"/><circle class="cls-1" cx="59.9" cy="18.28" r="4.55"/><path class="cls-1" d="M71.75,6.5A22.33,22.33,0,0,0,55.2,0H22.83A21.52,21.52,0,0,0,0,20.2a23.08,23.08,0,0,0,0,2.63V55A22.58,22.58,0,0,0,6.65,71.75,22.92,22.92,0,0,0,23,78H55a23.12,23.12,0,0,0,16.49-6.24A22.45,22.45,0,0,0,78,55.2V22.83A22.51,22.51,0,0,0,71.75,6.5Zm-.62,48.7a15.39,15.39,0,0,1-4.55,11.47A16.29,16.29,0,0,1,55.1,70.76H23a16.29,16.29,0,0,1-11.48-4.09A15.82,15.82,0,0,1,7.27,55V22.83a15.65,15.65,0,0,1,4.24-11.47A16,16,0,0,1,23,7.27H55.35a15.61,15.61,0,0,1,11.47,4.25,16.19,16.19,0,0,1,4.24,11.31V55.2Z"/></g></g></g></svg>