<svg xmlns="http://www.w3.org/2000/svg" viewBox="0 0 21 12"><defs><style>.cls-1{fill:#4e7aac;}</style></defs><title>socio_vk</title><g id="Layer_2" data-name="Layer 2"><g id="Layer_1-2" data-name="Layer 1"><g id="Layer_1-2-2" data-name="Layer 1-2"><g id="VK"><path class="cls-1" d="M11.19,12c.71,0,.71-.94.71-1.34a1.45,1.45,0,0,1,1.39-1.32c.7,0,2,1.2,2.79,2s.7.66,1.4.66h2.1A1.36,1.36,0,0,0,21,10.66c0-.4-.42-1.06-2.1-2.66-1.39-1.34-2.09-.66,0-3.34,1.26-1.6,2.24-3.06,2.1-3.6S17.2,0,16.78.66A25.6,25.6,0,0,0,14.69,4c-.7,1.34-.7,2-1.4,2s-.7-1.34-.7-2c0-2.26.28-3.74-.69-4H9.8A4.26,4.26,0,0,0,7.7.66s-.83.68-.69.68S8.4,1.06,8.4,2V3.34S8.4,6,7.7,6,5.61,3.34,4.21,1.34c-.56-.8-.7-.68-1.4-.68H.75c-.7,0-.84.4-.7.68,1.4,3.32,2.37,5.46,5,8A7.56,7.56,0,0,0,10.53,12Z"/></g></g></g></g></svg>